# Blender v2.75 (sub 0) OBJ File: 'debug.blend'
# www.blender.org
o Cube.001
v -0.986044 0.493364 0.923995
v -1.000000 0.459671 0.923995
v -0.986044 0.459671 0.957689
v -0.962489 0.498164 0.962488
v -0.957689 0.459671 0.986044
v -0.923996 0.459671 1.000000
v -0.923996 0.493364 0.986044
v -0.957689 0.521719 0.923995
v -0.923996 0.521719 0.957689
v -0.923996 0.535676 0.923995
v -0.986044 -0.479222 0.957689
v -1.000000 -0.479222 0.923995
v -0.986044 -0.512915 0.923995
v -0.962488 -0.517715 0.962488
v -0.957689 -0.541270 0.923995
v -0.923995 -0.555226 0.923995
v -0.923995 -0.541270 0.957689
v -0.957689 -0.479222 0.986044
v -0.923995 -0.512915 0.986044
v -0.923995 -0.479222 1.000000
v 0.986044 0.459671 0.957689
v 1.000000 0.459671 0.923996
v 0.986044 0.493365 0.923996
v 0.962488 0.498164 0.962488
v 0.957689 0.521720 0.923996
v 0.923995 0.535676 0.923996
v 0.923995 0.521720 0.957689
v 0.957689 0.459671 0.986044
v 0.923995 0.493365 0.986044
v 0.923995 0.459671 1.000000
v 0.923996 -0.541270 0.957689
v 0.923996 -0.555226 0.923996
v 0.957689 -0.541270 0.923996
v 0.962488 -0.517714 0.962488
v 0.986044 -0.512915 0.923996
v 1.000000 -0.479222 0.923996
v 0.986044 -0.479222 0.957689
v 0.923996 -0.512915 0.986044
v 0.957689 -0.479222 0.986044
v 0.923996 -0.479222 1.000000
v -0.986044 0.459671 -0.957689
v -1.000000 0.459671 -0.923996
v -0.986044 0.493364 -0.923996
v -0.962488 0.498164 -0.962488
v -0.957689 0.521719 -0.923996
v -0.923996 0.535676 -0.923996
v -0.923996 0.521719 -0.957689
v -0.957689 0.459671 -0.986044
v -0.923996 0.493364 -0.986044
v -0.923996 0.459671 -1.000000
v -0.923995 -0.541270 -0.957689
v -0.923995 -0.555226 -0.923996
v -0.957689 -0.541270 -0.923996
v -0.962488 -0.517715 -0.962488
v -0.986044 -0.512915 -0.923996
v -1.000000 -0.479222 -0.923996
v -0.986044 -0.479222 -0.957689
v -0.923995 -0.512915 -0.986044
v -0.957689 -0.479222 -0.986044
v -0.923995 -0.479222 -1.000000
v 0.957689 0.459671 -0.986044
v 0.923995 0.459671 -1.000000
v 0.923995 0.493365 -0.986044
v 0.962488 0.498164 -0.962488
v 0.923995 0.521720 -0.957689
v 0.923995 0.535676 -0.923995
v 0.957689 0.521720 -0.923995
v 0.986044 0.459671 -0.957689
v 0.986044 0.493365 -0.923995
v 1.000000 0.459671 -0.923995
v 0.957689 -0.541270 -0.923995
v 0.923996 -0.555226 -0.923995
v 0.923996 -0.541270 -0.957689
v 0.962489 -0.517714 -0.962488
v 0.923996 -0.512915 -0.986044
v 0.923996 -0.479222 -1.000000
v 0.957689 -0.479222 -0.986044
v 0.986044 -0.512915 -0.923995
v 0.986044 -0.479222 -0.957689
v 1.000000 -0.479222 -0.923995
vt 0.961998 0.978844
vt 0.038002 0.978844
vt 0.038002 0.993022
vt 0.961998 0.993022
vt 0.993022 0.260389
vt 0.993022 0.729836
vt 0.978844 0.729836
vt 0.978844 0.260389
vt 0.038002 0.260389
vt 0.961998 0.260389
vt 0.961998 0.729836
vt 0.038002 0.729836
vt 0.978844 0.961998
vt 0.978844 0.038002
vt 0.993022 0.038002
vt 0.993022 0.961998
vt 0.006978 0.729836
vt 0.006978 0.260389
vt 0.021156 0.260389
vt 0.021156 0.729836
vt 0.021156 0.961998
vt 0.021156 0.038002
vt 0.006978 0.038002
vt 0.006978 0.961998
vt 0.038002 0.961998
vt 0.961998 0.961998
vt 0.961998 0.038002
vt 0.038002 0.038002
vt 0.038002 0.021156
vt 0.961998 0.021156
vt 0.961998 0.006978
vt 0.038002 0.006978
vt 0.038002 0.746682
vt 0.018756 0.749082
vt 0.038002 0.243542
vt 0.018756 0.241143
vt 0.981244 0.981244
vt 0.981244 0.018756
vt 0.961998 0.746682
vt 0.981244 0.749082
vt 0.018756 0.018756
vt 0.018756 0.981244
vt 0.981244 0.241143
vt 0.961998 0.243543
vn 0.188100 -0.819100 -0.541900
vn -0.188100 -0.819100 -0.541900
vn -0.188100 -0.541900 -0.819100
vn 0.188100 -0.541900 -0.819100
vn 0.819100 -0.188100 0.541900
vn 0.819100 0.188100 0.541900
vn 0.541900 0.188100 0.819100
vn 0.541900 -0.188100 0.819100
vn -0.199200 -0.199200 0.959500
vn 0.199200 -0.199200 0.959500
vn 0.199200 0.199200 0.959500
vn -0.199200 0.199200 0.959500
vn 0.541900 0.819100 -0.188100
vn 0.541900 0.819100 0.188100
vn 0.819100 0.541900 0.188100
vn 0.819100 0.541900 -0.188100
vn -0.819100 0.188100 0.541900
vn -0.819100 -0.188100 0.541900
vn -0.541900 -0.188100 0.819100
vn -0.541900 0.188100 0.819100
vn -0.541900 -0.819100 -0.188100
vn -0.541900 -0.819100 0.188100
vn -0.819100 -0.541900 0.188100
vn -0.819100 -0.541900 -0.188100
vn 0.959500 -0.199200 0.199200
vn 0.959500 -0.199200 -0.199200
vn 0.959500 0.199200 -0.199200
vn 0.959500 0.199200 0.199200
vn 0.541900 -0.819100 0.188100
vn 0.541900 -0.819100 -0.188100
vn 0.819100 -0.541900 -0.188100
vn 0.819100 -0.541900 0.188100
vn -0.188100 0.819100 -0.541900
vn 0.188100 0.819100 -0.541900
vn 0.188100 0.541900 -0.819100
vn -0.188100 0.541900 -0.819100
vn 0.541900 -0.188100 -0.819100
vn 0.541900 0.188100 -0.819100
vn 0.819100 0.188100 -0.541900
vn 0.819100 -0.188100 -0.541900
vn -0.959500 -0.199200 -0.199200
vn -0.959500 -0.199200 0.199200
vn -0.959500 0.199200 0.199200
vn -0.959500 0.199200 -0.199200
vn -0.199200 -0.959500 -0.199200
vn 0.199200 -0.959500 -0.199200
vn 0.199200 -0.959500 0.199200
vn -0.199200 -0.959500 0.199200
vn -0.199200 0.959500 0.199200
vn 0.199200 0.959500 0.199200
vn 0.199200 0.959500 -0.199200
vn -0.199200 0.959500 -0.199200
vn -0.819100 -0.188100 -0.541900
vn -0.819100 0.188100 -0.541900
vn -0.541900 0.188100 -0.819100
vn -0.541900 -0.188100 -0.819100
vn 0.199200 -0.199200 -0.959500
vn -0.199200 -0.199200 -0.959500
vn -0.199200 0.199200 -0.959500
vn 0.199200 0.199200 -0.959500
vn -0.188100 -0.819100 0.541900
vn 0.188100 -0.819100 0.541900
vn 0.188100 -0.541900 0.819100
vn -0.188100 -0.541900 0.819100
vn 0.188100 0.819100 0.541900
vn -0.188100 0.819100 0.541900
vn -0.188100 0.541900 0.819100
vn 0.188100 0.541900 0.819100
vn -0.819100 0.541900 0.188100
vn -0.577300 0.577300 0.577300
vn -0.577300 -0.577300 0.577300
vn 0.577300 0.577300 0.577300
vn 0.577300 0.577300 -0.577300
vn 0.577300 -0.577300 0.577300
vn -0.819100 0.541900 -0.188100
vn -0.577300 0.577300 -0.577300
vn -0.577300 -0.577300 -0.577300
vn -0.541900 0.819100 -0.188100
vn 0.577300 -0.577300 -0.577300
vn -0.541900 0.819100 0.188100
s 1
f 73/1/1 51/2/2 58/3/3 75/4/4
f 37/5/5 21/6/6 28/7/7 39/8/8
f 20/9/9 40/10/10 30/11/11 6/12/12
f 67/13/13 25/14/14 23/15/15 69/16/16
f 3/17/17 11/18/18 18/19/19 5/20/20
f 53/21/21 15/22/22 13/23/23 55/24/24
f 36/9/25 80/10/26 70/11/27 22/12/28
f 33/14/29 71/13/30 78/16/31 35/15/32
f 47/2/33 65/1/34 63/4/35 49/3/36
f 77/8/37 61/7/38 68/6/39 79/5/40
f 56/10/41 12/9/42 2/12/43 42/11/44
f 52/25/45 72/26/46 32/27/47 16/28/48
f 10/28/49 26/27/50 66/26/51 46/25/52
f 57/18/53 41/17/54 48/20/55 59/19/56
f 76/10/57 60/9/58 50/12/59 62/11/60
f 17/29/61 31/30/62 38/31/63 19/32/64
f 27/30/65 9/29/66 7/32/67 29/31/68
f 1/33/69 2/12/43 3/20/17 4/34/70
f 11/19/18 12/9/42 13/35/23 14/36/71
f 21/20/6 22/12/28 23/33/15 24/34/72
f 67/13/13 69/16/16 64/37/73
f 63/4/35 65/1/34 64/37/73
f 31/30/62 32/27/47 33/14/29 34/38/74
f 27/30/65 29/31/68 24/38/72
f 23/15/15 25/14/14 24/38/72
f 41/7/54 42/11/44 43/39/75 44/40/76
f 7/32/67 9/29/66 4/41/70
f 3/17/17 5/20/20 4/34/70
f 51/2/2 52/25/45 53/21/21 54/42/77
f 61/7/38 62/11/60 63/39/35 64/40/73
f 47/2/33 49/3/36 44/42/76
f 43/24/75 45/21/78 44/42/76
f 71/13/30 72/26/46 73/1/1 74/37/79
f 37/5/5 39/8/8 34/43/74
f 33/14/29 35/15/32 34/38/74
f 68/6/39 61/7/38 64/40/73
f 68/7/39 64/40/73 69/39/16 70/11/27
f 65/1/34 66/26/51 67/13/13 64/37/73
f 28/7/7 21/6/6 24/40/72
f 28/7/7 24/40/72 29/39/68 30/11/11
f 25/14/14 26/27/50 27/30/65 24/38/72
f 8/22/80 1/23/69 4/41/70
f 8/22/80 4/41/70 9/29/66 10/28/49
f 5/20/20 6/12/12 7/33/67 4/34/70
f 48/20/55 41/17/54 44/34/76
f 48/20/55 44/34/76 49/33/36 50/12/59
f 45/21/78 46/25/52 47/2/33 44/42/76
f 38/31/63 31/30/62 34/38/74
f 38/44/63 34/43/74 39/8/8 40/10/10
f 35/35/32 36/9/25 37/19/5 34/36/74
f 2/12/43 12/9/42 11/19/18 3/20/17
f 20/9/9 6/12/12 5/20/20 18/19/19
f 16/28/48 32/27/47 31/30/62 17/29/61
f 40/10/10 20/9/9 19/35/64 38/44/63
f 36/9/25 22/12/28 21/20/6 37/19/5
f 30/11/11 40/10/10 39/8/8 28/7/7
f 26/27/50 10/28/49 9/29/66 27/30/65
f 6/12/12 30/11/11 29/39/68 7/33/67
f 32/27/47 72/26/46 71/13/30 33/14/29
f 80/10/26 36/9/25 35/35/32 78/44/31
f 76/10/57 62/11/60 61/7/38 77/8/37
f 70/11/27 80/10/26 79/8/40 68/7/39
f 66/26/51 26/27/50 25/14/14 67/13/13
f 22/12/28 70/11/27 69/39/16 23/33/15
f 72/26/46 52/25/45 51/2/2 73/1/1
f 60/9/58 76/10/57 75/44/4 58/35/3
f 56/10/41 42/11/44 41/7/54 57/8/53
f 50/12/59 60/9/58 59/19/56 48/20/55
f 46/25/52 66/26/51 65/1/34 47/2/33
f 62/11/60 50/12/59 49/33/36 63/39/35
f 52/25/45 16/28/48 15/22/22 53/21/21
f 12/9/42 56/10/41 55/44/24 13/35/23
f 10/28/49 46/25/52 45/21/78 8/22/80
f 42/11/44 2/12/43 1/33/69 43/39/75
f 8/22/80 45/21/78 43/24/75 1/23/69
f 15/22/22 16/28/48 17/29/61 14/41/71
f 18/19/19 14/36/71 19/35/64 20/9/9
f 18/19/19 11/18/18 14/36/71
f 13/23/23 15/22/22 14/41/71
f 17/29/61 19/32/64 14/41/71
f 55/44/24 56/10/41 57/8/53 54/43/77
f 58/35/3 54/36/77 59/19/56 60/9/58
f 58/3/3 51/2/2 54/42/77
f 53/21/21 55/24/24 54/42/77
f 57/18/53 59/19/56 54/36/77
f 75/44/4 76/10/57 77/8/37 74/43/79
f 78/44/31 74/43/79 79/8/40 80/10/26
f 78/16/31 71/13/30 74/37/79
f 73/1/1 75/4/4 74/37/79
f 77/8/37 79/5/40 74/43/79
