# Blender v2.75 (sub 0) OBJ File: 'debug.blend'
# www.blender.org
o Circle
v 0.000000 -0.088390 -1.000000
v -0.195090 -0.088390 -0.980785
v -0.382683 -0.088390 -0.923880
v -0.555570 -0.088390 -0.831470
v -0.707107 -0.088390 -0.707107
v -0.831470 -0.088390 -0.555570
v -0.923880 -0.088390 -0.382683
v -0.980785 -0.088390 -0.195090
v -1.000000 -0.088390 -0.000000
v -0.980785 -0.088390 0.195090
v -0.923880 -0.088390 0.382683
v -0.831470 -0.088390 0.555570
v -0.707107 -0.088390 0.707107
v -0.555570 -0.088390 0.831470
v -0.382683 -0.088390 0.923880
v -0.195090 -0.088390 0.980785
v 0.000000 -0.088390 1.000000
v 0.195091 -0.088390 0.980785
v 0.382684 -0.088390 0.923879
v 0.555571 -0.088390 0.831469
v 0.707107 -0.088390 0.707106
v 0.831470 -0.088390 0.555570
v 0.923880 -0.088390 0.382683
v 0.980785 -0.088390 0.195089
v 1.000000 -0.088390 -0.000001
v 0.980785 -0.088390 -0.195091
v 0.923879 -0.088390 -0.382684
v 0.831469 -0.088390 -0.555571
v 0.707106 -0.088390 -0.707108
v 0.555569 -0.088390 -0.831470
v 0.382682 -0.088390 -0.923880
v 0.195089 -0.088390 -0.980786
v 0.000000 0.181602 -1.000000
v -0.195090 0.181602 -0.980785
v -0.382683 0.181602 -0.923880
v -0.555570 0.181602 -0.831470
v -0.707107 0.181602 -0.707107
v -0.831470 0.181602 -0.555570
v -0.923880 0.181602 -0.382683
v -0.980785 0.181602 -0.195090
v -1.000000 0.181602 -0.000000
v -0.980785 0.181602 0.195090
v -0.923880 0.181602 0.382683
v -0.831470 0.181602 0.555570
v -0.707107 0.181602 0.707107
v -0.555570 0.181602 0.831470
v -0.382683 0.181602 0.923880
v -0.195090 0.181602 0.980785
v 0.000000 0.181602 1.000000
v 0.195091 0.181602 0.980785
v 0.382684 0.181602 0.923879
v 0.555571 0.181602 0.831469
v 0.707107 0.181602 0.707106
v 0.831470 0.181602 0.555570
v 0.923880 0.181602 0.382683
v 0.980785 0.181602 0.195089
v 1.000000 0.181602 -0.000001
v 0.980785 0.181602 -0.195091
v 0.923879 0.181602 -0.382684
v 0.831469 0.181602 -0.555571
v 0.707106 0.181602 -0.707108
v 0.555569 0.181602 -0.831470
v 0.382682 0.181602 -0.923880
v 0.195089 0.181602 -0.980786
v -0.000000 0.198044 -0.970751
v -0.189384 0.198044 -0.952098
v -0.371490 0.198044 -0.896857
v -0.539320 0.198044 -0.807150
v -0.686425 0.198044 -0.686425
v -0.807150 0.198044 -0.539320
v -0.896857 0.198044 -0.371490
v -0.952098 0.198044 -0.189384
v -0.970751 0.198044 -0.000000
v -0.952098 0.198044 0.189384
v -0.896857 0.198044 0.371490
v -0.807150 0.198044 0.539320
v -0.686425 0.198044 0.686425
v -0.539320 0.198044 0.807150
v -0.371490 0.198044 0.896857
v -0.189384 0.198044 0.952098
v 0.000000 0.198044 0.970751
v 0.189385 0.198044 0.952098
v 0.371491 0.198044 0.896857
v 0.539321 0.198044 0.807150
v 0.686425 0.198044 0.686424
v 0.807150 0.198044 0.539320
v 0.896857 0.198044 0.371490
v 0.952098 0.198044 0.189383
v 0.970751 0.198044 -0.000001
v 0.952098 0.198044 -0.189385
v 0.896857 0.198044 -0.371491
v 0.807149 0.198044 -0.539321
v 0.686424 0.198044 -0.686426
v 0.539319 0.198044 -0.807151
v 0.371489 0.198044 -0.896858
v 0.189383 0.198044 -0.952099
v -0.000000 0.198044 -0.000000
v -0.000000 -0.180709 -0.000000
vt 0.406266 0.636924
vt 0.406266 0.679956
vt 0.375021 0.679956
vt 0.375021 0.636924
vt 0.999916 0.636924
vt 0.999916 0.679956
vt 0.968671 0.679956
vt 0.968671 0.636924
vt 0.843692 0.636924
vt 0.843692 0.679956
vt 0.812448 0.679956
vt 0.812448 0.636924
vt 0.437511 0.636924
vt 0.437511 0.679956
vt 0.031329 0.636924
vt 0.031329 0.679957
vt 0.000084 0.679957
vt 0.000084 0.636924
vt 0.468756 0.636924
vt 0.468756 0.679956
vt 0.062574 0.636924
vt 0.062574 0.679957
vt 0.500000 0.636924
vt 0.500000 0.679956
vt 0.093819 0.636924
vt 0.093819 0.679957
vt 0.531245 0.636924
vt 0.531245 0.679956
vt 0.125063 0.636924
vt 0.125063 0.679957
vt 0.562490 0.636924
vt 0.562490 0.679956
vt 0.156308 0.636924
vt 0.156308 0.679957
vt 0.593735 0.636924
vt 0.593735 0.679956
vt 0.187553 0.636924
vt 0.187553 0.679956
vt 0.624979 0.636924
vt 0.624979 0.679956
vt 0.218798 0.636924
vt 0.218798 0.679956
vt 0.656224 0.636924
vt 0.656224 0.679956
vt 0.250042 0.636924
vt 0.250042 0.679956
vt 0.687469 0.636924
vt 0.687469 0.679956
vt 0.281287 0.636924
vt 0.281287 0.679956
vt 0.874937 0.636924
vt 0.874937 0.679956
vt 0.718714 0.636924
vt 0.718714 0.679956
vt 0.312532 0.636924
vt 0.312532 0.679956
vt 0.906182 0.636924
vt 0.906182 0.679956
vt 0.749958 0.636924
vt 0.749958 0.679956
vt 0.343777 0.636924
vt 0.343777 0.679956
vt 0.937426 0.636924
vt 0.937426 0.679956
vt 0.781203 0.636924
vt 0.781203 0.679956
vt 0.300543 0.083925
vt 0.312551 0.112914
vt 0.307410 0.114478
vt 0.295806 0.086462
vt 0.000084 0.143689
vt 0.006206 0.112914
vt 0.011350 0.114470
vt 0.005433 0.144212
vt 0.318673 0.143690
vt 0.313325 0.144221
vt 0.018214 0.083924
vt 0.022955 0.086454
vt 0.318673 0.175068
vt 0.313324 0.174546
vt 0.035647 0.057834
vt 0.039803 0.061240
vt 0.312551 0.205843
vt 0.307407 0.204287
vt 0.057835 0.035647
vt 0.061247 0.039798
vt 0.300543 0.234833
vt 0.295802 0.232304
vt 0.083925 0.018214
vt 0.086462 0.022951
vt 0.175067 0.318673
vt 0.143689 0.318673
vt 0.144212 0.313324
vt 0.174536 0.313325
vt 0.283110 0.260923
vt 0.278953 0.257517
vt 0.112914 0.006206
vt 0.114478 0.011347
vt 0.112914 0.312551
vt 0.114470 0.307407
vt 0.260922 0.283110
vt 0.257510 0.278959
vt 0.143690 0.000084
vt 0.144221 0.005432
vt 0.083924 0.300543
vt 0.086454 0.295802
vt 0.234832 0.300543
vt 0.232295 0.295806
vt 0.175068 0.000084
vt 0.174545 0.005433
vt 0.057834 0.283110
vt 0.061240 0.278954
vt 0.205842 0.312551
vt 0.204278 0.307410
vt 0.205843 0.006206
vt 0.204287 0.011350
vt 0.035647 0.260922
vt 0.039798 0.257510
vt 0.234833 0.018214
vt 0.232303 0.022955
vt 0.018214 0.234832
vt 0.022951 0.232295
vt 0.260923 0.035647
vt 0.257517 0.039804
vt 0.006206 0.205843
vt 0.011347 0.204279
vt 0.283110 0.057835
vt 0.278959 0.061247
vt 0.000084 0.175067
vt 0.005432 0.174536
vt 0.159378 0.159379
vt 0.000084 0.462142
vt 0.006193 0.431432
vt 0.159041 0.477798
vt 0.299907 0.553092
vt 0.282511 0.579127
vt 0.000084 0.493454
vt 0.311889 0.524164
vt 0.006193 0.524164
vt 0.317998 0.493454
vt 0.018175 0.553092
vt 0.317998 0.462142
vt 0.035571 0.579127
vt 0.311889 0.431432
vt 0.057712 0.601268
vt 0.299907 0.402504
vt 0.083747 0.618664
vt 0.143385 0.318841
vt 0.174697 0.318841
vt 0.282511 0.376469
vt 0.112675 0.630646
vt 0.112675 0.324950
vt 0.260370 0.354328
vt 0.143385 0.636755
vt 0.083747 0.336932
vt 0.234335 0.336932
vt 0.174697 0.636755
vt 0.057712 0.354328
vt 0.205407 0.324950
vt 0.205407 0.630646
vt 0.035571 0.376469
vt 0.234335 0.618664
vt 0.018176 0.402504
vt 0.260370 0.601268
vn 0.289600 -0.653500 0.699200
vn 0.333200 0.491700 0.804500
vn 0.169900 0.491700 0.854000
vn 0.147600 -0.653500 0.742300
vn -0.629300 -0.653500 -0.420500
vn -0.724000 0.491700 -0.483700
vn -0.615700 0.491700 -0.615700
vn -0.535200 -0.653500 -0.535200
vn 0.000000 -0.653500 -0.756900
vn 0.000000 0.491700 -0.870800
vn 0.169900 0.491700 -0.854000
vn 0.147600 -0.653500 -0.742300
vn 0.420500 -0.653500 0.629300
vn 0.483700 0.491700 0.724000
vn -0.699200 -0.653500 -0.289600
vn -0.804500 0.491700 -0.333200
vn 0.535200 -0.653500 0.535200
vn 0.615700 0.491700 0.615700
vn -0.742300 -0.653500 -0.147600
vn -0.854000 0.491700 -0.169900
vn 0.629300 -0.653500 0.420500
vn 0.724000 0.491700 0.483700
vn -0.756900 -0.653500 0.000000
vn -0.870800 0.491700 0.000000
vn 0.699200 -0.653500 0.289600
vn 0.804500 0.491700 0.333200
vn -0.742300 -0.653500 0.147600
vn -0.854000 0.491700 0.169900
vn 0.742300 -0.653500 0.147600
vn 0.854000 0.491700 0.169900
vn -0.699200 -0.653500 0.289600
vn -0.804500 0.491700 0.333200
vn 0.756900 -0.653500 0.000000
vn 0.870800 0.491700 0.000000
vn -0.629300 -0.653500 0.420500
vn -0.724000 0.491700 0.483700
vn 0.742300 -0.653500 -0.147600
vn 0.854000 0.491700 -0.169900
vn -0.535200 -0.653500 0.535200
vn -0.615700 0.491700 0.615700
vn 0.699200 -0.653500 -0.289600
vn 0.804500 0.491700 -0.333200
vn -0.420500 -0.653500 0.629300
vn -0.483700 0.491700 0.724000
vn 0.629300 -0.653500 -0.420500
vn 0.724000 0.491700 -0.483700
vn -0.289600 -0.653500 0.699200
vn -0.333200 0.491700 0.804500
vn -0.147600 -0.653500 -0.742300
vn -0.169900 0.491700 -0.854000
vn 0.535200 -0.653500 -0.535200
vn 0.615700 0.491700 -0.615700
vn -0.147600 -0.653500 0.742300
vn -0.169900 0.491700 0.854000
vn -0.289600 -0.653500 -0.699200
vn -0.333200 0.491700 -0.804500
vn 0.420500 -0.653500 -0.629300
vn 0.483700 0.491700 -0.724000
vn 0.000000 -0.653500 0.756900
vn 0.000000 0.491700 0.870800
vn -0.420500 -0.653500 -0.629300
vn -0.483700 0.491700 -0.724000
vn 0.289600 -0.653500 -0.699200
vn 0.333200 0.491700 -0.804500
vn 0.262800 0.963400 0.052200
vn 0.247500 0.963400 0.102500
vn -0.247500 0.963400 0.102500
vn -0.262800 0.963400 0.052200
vn 0.268000 0.963400 0.000000
vn -0.222800 0.963400 0.148800
vn 0.262800 0.963400 -0.052200
vn -0.189500 0.963400 0.189500
vn 0.247500 0.963400 -0.102500
vn -0.148800 0.963400 0.222800
vn 0.222800 0.963400 -0.148800
vn -0.102500 0.963400 0.247500
vn -0.052200 0.963400 -0.262800
vn 0.000000 0.963400 -0.268000
vn 0.189500 0.963400 -0.189500
vn -0.052200 0.963400 0.262800
vn -0.102500 0.963400 -0.247500
vn 0.148800 0.963400 -0.222800
vn 0.000000 0.963400 0.268000
vn -0.148800 0.963400 -0.222800
vn 0.102500 0.963400 -0.247500
vn 0.052200 0.963400 0.262800
vn -0.189500 0.963400 -0.189500
vn 0.052200 0.963400 -0.262800
vn 0.102500 0.963400 0.247500
vn -0.222800 0.963400 -0.148800
vn 0.148800 0.963400 0.222800
vn -0.247500 0.963400 -0.102500
vn 0.189500 0.963400 0.189500
vn -0.262800 0.963400 -0.052200
vn 0.222800 0.963400 0.148800
vn -0.268000 0.963400 0.000000
vn 0.000000 1.000000 0.000000
vn 0.000000 -1.000000 0.000000
s 1
f 19/1/1 51/2/2 50/3/3 18/4/4
f 6/5/5 38/6/6 37/7/7 5/8/8
f 1/9/9 33/10/10 64/11/11 32/12/12
f 20/13/13 52/14/14 51/2/2 19/1/1
f 7/15/15 39/16/16 38/17/6 6/18/5
f 21/19/17 53/20/18 52/14/14 20/13/13
f 8/21/19 40/22/20 39/16/16 7/15/15
f 22/23/21 54/24/22 53/20/18 21/19/17
f 9/25/23 41/26/24 40/22/20 8/21/19
f 23/27/25 55/28/26 54/24/22 22/23/21
f 10/29/27 42/30/28 41/26/24 9/25/23
f 24/31/29 56/32/30 55/28/26 23/27/25
f 11/33/31 43/34/32 42/30/28 10/29/27
f 25/35/33 57/36/34 56/32/30 24/31/29
f 12/37/35 44/38/36 43/34/32 11/33/31
f 26/39/37 58/40/38 57/36/34 25/35/33
f 13/41/39 45/42/40 44/38/36 12/37/35
f 27/43/41 59/44/42 58/40/38 26/39/37
f 14/45/43 46/46/44 45/42/40 13/41/39
f 28/47/45 60/48/46 59/44/42 27/43/41
f 15/49/47 47/50/48 46/46/44 14/45/43
f 2/51/49 34/52/50 33/10/10 1/9/9
f 29/53/51 61/54/52 60/48/46 28/47/45
f 16/55/53 48/56/54 47/50/48 15/49/47
f 3/57/55 35/58/56 34/52/50 2/51/49
f 30/59/57 62/60/58 61/54/52 29/53/51
f 17/61/59 49/62/60 48/56/54 16/55/53
f 4/63/61 36/64/62 35/58/56 3/57/55
f 31/65/63 63/66/64 62/60/58 30/59/57
f 18/4/4 50/3/3 49/62/60 17/61/59
f 5/8/8 37/7/7 36/64/62 4/63/61
f 32/12/12 64/11/11 63/66/64 31/65/63
f 55/67/26 56/68/30 88/69/65 87/70/66
f 42/71/28 43/72/32 75/73/67 74/74/68
f 56/68/30 57/75/34 89/76/69 88/69/65
f 43/72/32 44/77/36 76/78/70 75/73/67
f 57/75/34 58/79/38 90/80/71 89/76/69
f 44/77/36 45/81/40 77/82/72 76/78/70
f 58/79/38 59/83/42 91/84/73 90/80/71
f 45/81/40 46/85/44 78/86/74 77/82/72
f 59/83/42 60/87/46 92/88/75 91/84/73
f 46/85/44 47/89/48 79/90/76 78/86/74
f 33/91/10 34/92/50 66/93/77 65/94/78
f 60/87/46 61/95/52 93/96/79 92/88/75
f 47/89/48 48/97/54 80/98/80 79/90/76
f 34/92/50 35/99/56 67/100/81 66/93/77
f 61/95/52 62/101/58 94/102/82 93/96/79
f 48/97/54 49/103/60 81/104/83 80/98/80
f 35/99/56 36/105/62 68/106/84 67/100/81
f 62/101/58 63/107/64 95/108/85 94/102/82
f 49/103/60 50/109/3 82/110/86 81/104/83
f 36/105/62 37/111/7 69/112/87 68/106/84
f 63/107/64 64/113/11 96/114/88 95/108/85
f 50/109/3 51/115/2 83/116/89 82/110/86
f 37/111/7 38/117/6 70/118/90 69/112/87
f 64/113/11 33/91/10 65/94/78 96/114/88
f 51/115/2 52/119/14 84/120/91 83/116/89
f 38/117/6 39/121/16 71/122/92 70/118/90
f 52/119/14 53/123/18 85/124/93 84/120/91
f 39/121/16 40/125/20 72/126/94 71/122/92
f 53/123/18 54/127/22 86/128/95 85/124/93
f 40/125/20 41/129/24 73/130/96 72/126/94
f 54/127/22 55/67/26 87/70/66 86/128/95
f 41/129/24 42/71/28 74/74/68 73/130/96
f 90/80/71 91/84/73 97/131/97
f 77/82/72 78/86/74 97/131/97
f 91/84/73 92/88/75 97/131/97
f 78/86/74 79/90/76 97/131/97
f 65/94/78 66/93/77 97/131/97
f 92/88/75 93/96/79 97/131/97
f 79/90/76 80/98/80 97/131/97
f 66/93/77 67/100/81 97/131/97
f 93/96/79 94/102/82 97/131/97
f 80/98/80 81/104/83 97/131/97
f 67/100/81 68/106/84 97/131/97
f 94/102/82 95/108/85 97/131/97
f 81/104/83 82/110/86 97/131/97
f 68/106/84 69/112/87 97/131/97
f 95/108/85 96/114/88 97/131/97
f 82/110/86 83/116/89 97/131/97
f 69/112/87 70/118/90 97/131/97
f 96/114/88 65/94/78 97/131/97
f 83/116/89 84/120/91 97/131/97
f 70/118/90 71/122/92 97/131/97
f 84/120/91 85/124/93 97/131/97
f 71/122/92 72/126/94 97/131/97
f 85/124/93 86/128/95 97/131/97
f 72/126/94 73/130/96 97/131/97
f 86/128/95 87/70/66 97/131/97
f 73/130/96 74/74/68 97/131/97
f 87/70/66 88/69/65 97/131/97
f 74/74/68 75/73/67 97/131/97
f 88/69/65 89/76/69 97/131/97
f 75/73/67 76/78/70 97/131/97
f 89/76/69 90/80/71 97/131/97
f 76/78/70 77/82/72 97/131/97
f 9/132/23 8/133/19 98/134/98
f 23/135/25 22/136/21 98/134/98
f 10/137/27 9/132/23 98/134/98
f 24/138/29 23/135/25 98/134/98
f 11/139/31 10/137/27 98/134/98
f 25/140/33 24/138/29 98/134/98
f 12/141/35 11/139/31 98/134/98
f 26/142/37 25/140/33 98/134/98
f 13/143/39 12/141/35 98/134/98
f 27/144/41 26/142/37 98/134/98
f 14/145/43 13/143/39 98/134/98
f 28/146/45 27/144/41 98/134/98
f 15/147/47 14/145/43 98/134/98
f 2/148/49 1/149/9 98/134/98
f 29/150/51 28/146/45 98/134/98
f 16/151/53 15/147/47 98/134/98
f 3/152/55 2/148/49 98/134/98
f 30/153/57 29/150/51 98/134/98
f 17/154/59 16/151/53 98/134/98
f 4/155/61 3/152/55 98/134/98
f 31/156/63 30/153/57 98/134/98
f 18/157/4 17/154/59 98/134/98
f 5/158/8 4/155/61 98/134/98
f 32/159/12 31/156/63 98/134/98
f 19/160/1 18/157/4 98/134/98
f 6/161/5 5/158/8 98/134/98
f 1/149/9 32/159/12 98/134/98
f 20/162/13 19/160/1 98/134/98
f 7/163/15 6/161/5 98/134/98
f 21/164/17 20/162/13 98/134/98
f 8/133/19 7/163/15 98/134/98
f 22/136/21 21/164/17 98/134/98
