# Blender v2.75 (sub 0) OBJ File: ''
# www.blender.org
o Plane_Plane.005
v 3.607956 -0.934399 1.737090
v 6.808990 0.415900 1.737090
v 3.607956 -0.934399 -1.737090
v 6.808990 0.415900 -1.737090
v 5.522997 -0.356026 1.737090
v 5.522997 -0.356026 -1.737090
v 2.490349 -0.934399 3.135762
v 5.371441 0.415900 4.530723
v 4.004343 -0.934399 0.008823
v 6.885436 0.415900 1.403784
v 4.213982 -0.356026 3.970307
v 5.727977 -0.356026 0.843368
v 0.874924 -0.934399 3.907601
v 2.860153 0.415900 6.418674
v 3.600268 -0.934399 1.752971
v 5.585496 0.415900 4.264043
v 2.062601 -0.356026 5.409868
v 4.787945 -0.356026 3.255238
v -0.915396 -0.934399 3.898319
v -0.222875 0.415900 7.023544
v 2.476507 -0.934399 3.146705
v 3.169028 0.415900 6.271929
v -0.501091 -0.356026 5.768006
v 2.890812 -0.356026 5.016393
v -2.522730 -0.934399 3.109770
v -3.261351 0.415900 6.224422
v 0.857697 -0.934399 3.911419
v 0.119076 0.415900 7.026072
v -2.964615 -0.356026 4.973132
v 0.415812 -0.356026 5.774782
v -3.625777 -0.934399 1.699585
v -5.647890 0.415900 4.181051
v -0.932565 -0.934399 3.894248
v -2.954679 0.415900 6.375714
v -4.835520 -0.356026 3.184139
v -2.142308 -0.356026 5.378801
v -4.004037 -0.934399 -0.050344
v -6.905428 0.415900 1.301896
v -2.536410 -0.934399 3.098624
v -5.437800 0.415900 4.450865
v -5.739814 -0.356026 0.758643
v -4.272186 -0.356026 3.907611
v -3.581898 -0.934399 -1.790210
v -6.782583 0.415900 -1.837506
v -3.633230 -0.934399 1.683592
v -6.833915 0.415900 1.636296
v -5.496730 -0.356026 -1.818505
v -5.548062 -0.356026 1.655297
v -2.443746 -0.934399 -3.172216
v -5.303916 0.415900 -4.609595
v -4.003777 -0.934399 -0.067987
v -6.863945 0.415900 -1.505365
v -4.154862 -0.356026 -4.032138
v -5.714892 -0.356026 -0.927909
v -0.817093 -0.934399 -3.920103
v -2.765004 0.415900 -6.460235
v -3.573976 -0.934399 -1.805976
v -5.521886 0.415900 -4.346107
v -1.982444 -0.356026 -5.439755
v -4.739327 -0.356026 -3.325627
v 0.972895 -0.934399 -3.884370
v 0.326627 0.415900 -7.019486
v -2.429744 -0.934399 -3.182954
v -3.076013 0.415900 -6.318072
v 0.586261 -0.356026 -5.759975
v -2.816379 -0.356026 -5.058560
v 2.568404 -0.934399 -3.072158
v 3.352965 0.415900 -6.175558
v -0.799811 -0.934399 -3.923666
v -0.015250 0.415900 -7.027066
v 3.037773 -0.356026 -4.928789
v -0.330442 -0.356026 -5.780297
v 3.650494 -0.934399 -1.645828
v 5.709053 0.415900 -4.097146
v 0.990003 -0.934399 -3.880046
v 3.048561 0.415900 -6.331364
v 4.882041 -0.356026 -3.112347
v 2.221550 -0.356026 -5.346564
v 4.002857 -0.934399 0.109500
v 6.923913 0.415900 -1.199724
v 2.581917 -0.934399 -3.060811
v 5.502972 0.415900 -4.370035
v 5.750399 -0.356026 -0.673753
v 4.329458 -0.356026 -3.844063
vt 0.500000 0.000100
vt 0.999900 0.000100
vt 0.999900 0.999900
vt 0.500000 0.999900
vt 0.000100 0.000100
vt 0.000100 0.999900
vn -0.514700 0.857400 0.000000
vn -0.289100 0.957300 0.000000
vn -0.463200 0.857400 -0.224300
vn -0.260200 0.957300 -0.126000
vn -0.319200 0.857400 -0.403700
vn -0.179300 0.957300 -0.226800
vn -0.111300 0.857400 -0.502500
vn -0.062500 0.957300 -0.282300
vn 0.118800 0.857400 -0.500800
vn 0.066700 0.957300 -0.281300
vn 0.325100 0.857400 -0.399000
vn 0.182600 0.957300 -0.224100
vn 0.466500 0.857400 -0.217400
vn 0.262100 0.957300 -0.122100
vn 0.514600 0.857400 0.007600
vn 0.289100 0.957300 0.004300
vn 0.459900 0.857400 0.231100
vn 0.258300 0.957300 0.129800
vn 0.313200 0.857400 0.408400
vn 0.175900 0.957300 0.229400
vn 0.103900 0.857400 0.504100
vn 0.058400 0.957300 0.283200
vn -0.126100 0.857400 0.499000
vn -0.070900 0.957300 0.280300
vn -0.331000 0.857400 0.394100
vn -0.185900 0.957300 0.221400
vn -0.469600 0.857400 0.210500
vn -0.263800 0.957300 0.118200
s off
f 5/1/1 2/2/1 4/3/1 6/4/1
f 1/5/2 5/1/2 6/4/2 3/6/2
f 11/1/3 8/2/3 10/3/3 12/4/3
f 7/5/4 11/1/4 12/4/4 9/6/4
f 17/1/5 14/2/5 16/3/5 18/4/5
f 13/5/6 17/1/6 18/4/6 15/6/6
f 23/1/7 20/2/7 22/3/7 24/4/7
f 19/5/8 23/1/8 24/4/8 21/6/8
f 29/1/9 26/2/9 28/3/9 30/4/9
f 25/5/10 29/1/10 30/4/10 27/6/10
f 35/1/11 32/2/11 34/3/11 36/4/11
f 31/5/12 35/1/12 36/4/12 33/6/12
f 41/1/13 38/2/13 40/3/13 42/4/13
f 37/5/14 41/1/14 42/4/14 39/6/14
f 47/1/15 44/2/15 46/3/15 48/4/15
f 43/5/16 47/1/16 48/4/16 45/6/16
f 53/1/17 50/2/17 52/3/17 54/4/17
f 49/5/18 53/1/18 54/4/18 51/6/18
f 59/1/19 56/2/19 58/3/19 60/4/19
f 55/5/20 59/1/20 60/4/20 57/6/20
f 65/1/21 62/2/21 64/3/21 66/4/21
f 61/5/22 65/1/22 66/4/22 63/6/22
f 71/1/23 68/2/23 70/3/23 72/4/23
f 67/5/24 71/1/24 72/4/24 69/6/24
f 77/1/25 74/2/25 76/3/25 78/4/25
f 73/5/26 77/1/26 78/4/26 75/6/26
f 83/1/27 80/2/27 82/3/27 84/4/27
f 79/5/28 83/1/28 84/4/28 81/6/28
