# Blender v2.75 (sub 0) OBJ File: ''
# www.blender.org
o Plane.002_Plane.007
v 5.808396 -2.540926 2.535375
v 9.166038 1.258910 2.535375
v 5.808396 -2.540926 -2.535375
v 9.166038 1.258910 -2.535375
v 7.219621 0.536998 2.535375
v 7.219621 0.536998 -2.535375
v 3.743621 -2.540926 5.113795
v 6.645186 1.258910 6.803371
v 6.295240 -2.540926 0.731816
v 9.196806 1.258910 2.421392
v 4.963156 0.536998 5.823929
v 7.514775 0.536998 1.441949
v 0.661837 -2.540926 6.302981
v 2.319076 1.258910 9.223137
v 5.071892 -2.540926 3.800198
v 6.729131 1.258910 6.720354
v 1.358379 0.536998 7.530330
v 5.768434 0.536998 5.027547
v -2.599744 -2.540926 5.779873
v -2.637043 1.258910 9.137306
v 2.470693 -2.540926 5.836203
v 2.433393 1.258910 9.193636
v -2.615421 0.536998 7.191011
v 2.455016 0.536998 7.247341
v -5.155067 -2.540926 3.686580
v -6.876773 1.258910 6.569196
v -0.801704 -2.540926 6.286722
v -2.523409 1.258910 9.169338
v -5.878704 0.536998 4.898152
v -1.525342 0.536998 7.498291
v -6.309945 -2.540926 0.591777
v -9.248331 1.258910 2.216473
v -3.856308 -2.540926 5.029363
v -6.794693 1.258910 6.654059
v -7.544955 0.536998 1.274640
v -5.091318 0.536998 5.712227
v -5.750636 -2.540926 -2.663792
v -9.107448 1.258910 -2.738387
v -5.863290 -2.540926 2.405706
v -9.220100 1.258910 2.331111
v -7.161511 0.536998 -2.695145
v -7.274166 0.536998 2.374354
v -3.629086 -2.540926 -5.195704
v -6.492398 1.258910 -6.949326
v -6.277428 -2.540926 -0.871494
v -9.140739 1.258910 -2.625116
v -4.832542 0.536998 -5.932755
v -7.480885 0.536998 -1.608546
v -0.521643 -2.540926 -6.316129
v -2.113597 1.258910 -9.272382
v -4.986213 -2.540926 -3.911941
v -6.578166 1.258910 -6.868194
v -1.190745 0.536998 -7.558650
v -5.655314 0.536998 -5.154461
v 2.727511 -2.540926 -5.720688
v 2.839393 1.258910 -9.076466
v -2.340422 -2.540926 -5.889654
v -2.228541 1.258910 -9.245429
v 2.774535 0.536998 -7.131129
v -2.293398 0.536998 -7.300094
v 5.235698 -2.540926 -3.571143
v 7.021021 1.258910 -6.414797
v 0.941176 -2.540926 -6.267358
v 2.726499 1.258910 -9.111012
v 5.986074 0.536998 -4.766337
v 1.691551 0.536998 -7.462554
v 6.321533 -2.540926 -0.451445
v 9.295289 1.258910 -2.010459
v 3.967091 -2.540926 -4.942446
v 6.940846 1.258910 -6.501461
v 7.571410 0.536998 -1.106703
v 5.216967 0.536998 -5.597704
vt 0.000097 0.395962
vt 0.000097 0.000097
vt 0.941929 0.000097
vt 0.941929 0.395962
vt 0.000097 0.999903
vt 0.941929 0.999903
vn -0.347700 0.937600 -0.000000
vn -0.909000 0.416800 -0.000000
vn -0.300500 0.937600 -0.175000
vn -0.785500 0.416800 -0.457400
vn -0.171600 0.937600 -0.302400
vn -0.448700 0.416800 -0.790600
vn 0.003900 0.937600 -0.347700
vn 0.010100 0.416800 -0.909000
vn 0.178300 0.937600 -0.298500
vn 0.466100 0.416800 -0.780400
vn 0.304300 0.937600 -0.168300
vn 0.795500 0.416800 -0.439900
vn 0.347700 0.937600 0.007700
vn 0.908800 0.416800 0.020200
vn 0.296500 0.937600 0.181600
vn 0.775200 0.416800 0.474800
vn 0.164900 0.937600 0.306200
vn 0.431000 0.416800 0.800300
vn -0.011600 0.937600 0.347600
vn -0.030300 0.416800 0.908500
vn -0.184900 0.937600 0.294500
vn -0.483300 0.416800 0.769900
vn -0.308000 0.937600 0.161500
vn -0.805100 0.416800 0.422100
s off
f 5/1/1 2/2/1 4/3/1 6/4/1
f 1/5/2 5/1/2 6/4/2 3/6/2
f 11/1/3 8/2/3 10/3/3 12/4/3
f 7/5/4 11/1/4 12/4/4 9/6/4
f 17/1/5 14/2/5 16/3/5 18/4/5
f 13/5/6 17/1/6 18/4/6 15/6/6
f 23/1/7 20/2/7 22/3/7 24/4/7
f 19/5/8 23/1/8 24/4/8 21/6/8
f 29/1/9 26/2/9 28/3/9 30/4/9
f 25/5/10 29/1/10 30/4/10 27/6/10
f 35/1/11 32/2/11 34/3/11 36/4/11
f 31/5/12 35/1/12 36/4/12 33/6/12
f 41/1/13 38/2/13 40/3/13 42/4/13
f 37/5/14 41/1/14 42/4/14 39/6/14
f 47/1/15 44/2/15 46/3/15 48/4/15
f 43/5/16 47/1/16 48/4/16 45/6/16
f 53/1/17 50/2/17 52/3/17 54/4/17
f 49/5/18 53/1/18 54/4/18 51/6/18
f 59/1/19 56/2/19 58/3/19 60/4/19
f 55/5/20 59/1/20 60/4/20 57/6/20
f 65/1/21 62/2/21 64/3/21 66/4/21
f 61/5/22 65/1/22 66/4/22 63/6/22
f 71/1/23 68/2/23 70/3/23 72/4/23
f 67/5/24 71/1/24 72/4/24 69/6/24
