# Blender v2.75 (sub 0) OBJ File: ''
# www.blender.org
o Circle
v 0.000000 -0.078292 -1.000000
v -0.195090 -0.078292 -0.980785
v -0.382683 -0.078292 -0.923880
v -0.555570 -0.078292 -0.831470
v -0.707107 -0.078292 -0.707107
v -0.831470 -0.078292 -0.555570
v -0.923880 -0.078292 -0.382683
v -0.980785 -0.078292 -0.195090
v -1.000000 -0.078292 -0.000000
v -0.980785 -0.078292 0.195090
v -0.923880 -0.078292 0.382683
v -0.831470 -0.078292 0.555570
v -0.707107 -0.078292 0.707107
v -0.555570 -0.078292 0.831470
v -0.382683 -0.078292 0.923880
v -0.195090 -0.078292 0.980785
v 0.000000 -0.078292 1.000000
v 0.195091 -0.078292 0.980785
v 0.382684 -0.078292 0.923879
v 0.555571 -0.078292 0.831469
v 0.707107 -0.078292 0.707106
v 0.831470 -0.078292 0.555570
v 0.923880 -0.078292 0.382683
v 0.980785 -0.078292 0.195089
v 1.000000 -0.078292 -0.000001
v 0.980785 -0.078292 -0.195091
v 0.923879 -0.078292 -0.382684
v 0.831469 -0.078292 -0.555571
v 0.707106 -0.078292 -0.707108
v 0.555569 -0.078292 -0.831470
v 0.382682 -0.078292 -0.923880
v 0.195089 -0.078292 -0.980786
v -0.000000 0.065194 -0.792526
v -0.154614 0.065194 -0.777298
v -0.303287 0.065194 -0.732199
v -0.440304 0.065194 -0.658962
v -0.560401 0.065194 -0.560401
v -0.658962 0.065194 -0.440304
v -0.732199 0.065194 -0.303287
v -0.777298 0.065194 -0.154614
v -0.792526 0.065194 -0.000000
v -0.777298 0.065194 0.154614
v -0.732199 0.065194 0.303286
v -0.658962 0.065194 0.440304
v -0.560401 0.065194 0.560401
v -0.440304 0.065194 0.658962
v -0.303287 0.065194 0.732199
v -0.154614 0.065194 0.777298
v 0.000000 0.065194 0.792526
v 0.154615 0.065194 0.777298
v 0.303287 0.065194 0.732199
v 0.440304 0.065194 0.658961
v 0.560401 0.065194 0.560400
v 0.658962 0.065194 0.440304
v 0.732199 0.065194 0.303286
v 0.777298 0.065194 0.154613
v 0.792526 0.065194 -0.000001
v 0.777298 0.065194 -0.154615
v 0.732198 0.065194 -0.303288
v 0.658961 0.065194 -0.440305
v 0.560400 0.065194 -0.560401
v 0.440303 0.065194 -0.658962
v 0.303286 0.065194 -0.732199
v 0.154613 0.065194 -0.777298
v -0.000000 -0.074507 -0.699460
v -0.136458 -0.074507 -0.686020
v -0.267672 -0.074507 -0.646216
v -0.388599 -0.074507 -0.581579
v -0.494593 -0.074507 -0.494593
v -0.581579 -0.074507 -0.388599
v -0.646216 -0.074507 -0.267672
v -0.686020 -0.074507 -0.136458
v -0.699459 -0.074507 -0.000000
v -0.686020 -0.074507 0.136458
v -0.646216 -0.074507 0.267671
v -0.581579 -0.074507 0.388599
v -0.494593 -0.074507 0.494592
v -0.388599 -0.074507 0.581579
v -0.267671 -0.074507 0.646216
v -0.136458 -0.074507 0.686019
v 0.000000 -0.074507 0.699459
v 0.136458 -0.074507 0.686019
v 0.267672 -0.074507 0.646216
v 0.388599 -0.074507 0.581579
v 0.494593 -0.074507 0.494592
v 0.581580 -0.074507 0.388598
v 0.646217 -0.074507 0.267671
v 0.686020 -0.074507 0.136457
v 0.699459 -0.074507 -0.000001
v 0.686019 -0.074507 -0.136459
v 0.646216 -0.074507 -0.267672
v 0.581579 -0.074507 -0.388600
v 0.494592 -0.074507 -0.494593
v 0.388598 -0.074507 -0.581580
v 0.267671 -0.074507 -0.646217
v 0.136457 -0.074507 -0.686020
v -0.154614 0.065194 -0.777298
v -0.000000 0.065194 -0.792526
v -0.303287 0.065194 -0.732199
v -0.440304 0.065194 -0.658962
v -0.560401 0.065194 -0.560401
v -0.658962 0.065194 -0.440304
v -0.732199 0.065194 -0.303287
v -0.777298 0.065194 -0.154614
v -0.792526 0.065194 -0.000000
v -0.777298 0.065194 0.154614
v -0.732199 0.065194 0.303286
v -0.658962 0.065194 0.440304
v -0.560401 0.065194 0.560401
v -0.440304 0.065194 0.658962
v -0.303287 0.065194 0.732199
v -0.154614 0.065194 0.777298
v 0.000000 0.065194 0.792526
v 0.154615 0.065194 0.777298
v 0.303287 0.065194 0.732199
v 0.440304 0.065194 0.658961
v 0.560401 0.065194 0.560400
v 0.658962 0.065194 0.440304
v 0.732199 0.065194 0.303286
v 0.777298 0.065194 0.154613
v 0.792526 0.065194 -0.000001
v 0.777298 0.065194 -0.154615
v 0.732198 0.065194 -0.303288
v 0.658961 0.065194 -0.440305
v 0.560400 0.065194 -0.560401
v 0.440303 0.065194 -0.658962
v 0.303286 0.065194 -0.732199
v 0.154613 0.065194 -0.777298
vn 0.557900 0.822400 -0.111000
vn 0.568800 0.822400 0.000000
vn -0.402200 0.822400 0.402200
vn -0.472900 0.822400 0.316000
vn 0.525500 0.822400 -0.217700
vn -0.316000 0.822400 0.472900
vn 0.472900 0.822400 -0.316000
vn -0.217700 0.822400 0.525500
vn -0.111000 0.822400 -0.557900
vn 0.000000 0.822400 -0.568800
vn 0.402200 0.822400 -0.402200
vn -0.111000 0.822400 0.557900
vn -0.217700 0.822400 -0.525500
vn 0.316000 0.822400 -0.472900
vn 0.000000 0.822400 0.568800
vn -0.316000 0.822400 -0.472900
vn 0.217700 0.822400 -0.525500
vn 0.111000 0.822400 0.557900
vn -0.402200 0.822400 -0.402200
vn 0.111000 0.822400 -0.557900
vn 0.217700 0.822400 0.525500
vn -0.472900 0.822400 -0.316000
vn 0.316000 0.822400 0.472900
vn -0.525500 0.822400 -0.217700
vn 0.402200 0.822400 0.402200
vn -0.557900 0.822400 -0.111000
vn 0.472900 0.822400 0.316000
vn -0.568800 0.822400 0.000000
vn 0.525500 0.822400 0.217700
vn -0.557900 0.822400 0.111000
vn 0.557900 0.822400 0.111000
vn -0.525500 0.822400 0.217700
vn -0.588500 0.554400 -0.588500
vn -0.462400 0.554400 -0.692000
vn 0.816200 0.554400 0.162400
vn 0.768900 0.554400 0.318500
vn -0.692000 0.554400 -0.462400
vn 0.832200 0.554400 0.000000
vn -0.768900 0.554400 -0.318500
vn 0.816200 0.554400 -0.162400
vn -0.816200 0.554400 -0.162400
vn 0.768900 0.554400 -0.318500
vn -0.832200 0.554400 0.000000
vn 0.692000 0.554400 -0.462400
vn -0.816200 0.554400 0.162400
vn 0.588500 0.554400 -0.588500
vn -0.768900 0.554400 0.318500
vn 0.462400 0.554400 -0.692000
vn -0.692000 0.554400 0.462400
vn 0.318500 0.554400 -0.768900
vn 0.162400 0.554400 0.816200
vn 0.000000 0.554400 0.832200
vn -0.588500 0.554400 0.588500
vn 0.162400 0.554400 -0.816200
vn 0.318500 0.554400 0.768900
vn -0.462400 0.554400 0.692000
vn 0.000000 0.554400 -0.832200
vn 0.462400 0.554400 0.692000
vn -0.318500 0.554400 0.768900
vn -0.162400 0.554400 -0.816200
vn 0.588500 0.554400 0.588500
vn -0.162400 0.554400 0.816200
vn -0.318500 0.554400 -0.768900
vn 0.692000 0.554400 0.462400
s 1
f 26//1 122//1 121//2 25//2
f 13//3 109//3 108//4 12//4
f 27//5 123//5 122//1 26//1
f 14//6 110//6 109//3 13//3
f 28//7 124//7 123//5 27//5
f 15//8 111//8 110//6 14//6
f 2//9 97//9 98//10 1//10
f 29//11 125//11 124//7 28//7
f 16//12 112//12 111//8 15//8
f 3//13 99//13 97//9 2//9
f 30//14 126//14 125//11 29//11
f 17//15 113//15 112//12 16//12
f 4//16 100//16 99//13 3//13
f 31//17 127//17 126//14 30//14
f 18//18 114//18 113//15 17//15
f 5//19 101//19 100//16 4//16
f 32//20 128//20 127//17 31//17
f 19//21 115//21 114//18 18//18
f 6//22 102//22 101//19 5//19
f 1//10 98//10 128//20 32//20
f 20//23 116//23 115//21 19//21
f 7//24 103//24 102//22 6//22
f 21//25 117//25 116//23 20//23
f 8//26 104//26 103//24 7//24
f 22//27 118//27 117//25 21//25
f 9//28 105//28 104//26 8//26
f 23//29 119//29 118//27 22//27
f 10//30 106//30 105//28 9//28
f 24//31 120//31 119//29 23//29
f 11//32 107//32 106//30 10//30
f 25//2 121//2 120//31 24//31
f 12//4 108//4 107//32 11//32
f 53//33 85//33 84//34 52//34
f 40//35 72//35 71//36 39//36
f 54//37 86//37 85//33 53//33
f 41//38 73//38 72//35 40//35
f 55//39 87//39 86//37 54//37
f 42//40 74//40 73//38 41//38
f 56//41 88//41 87//39 55//39
f 43//42 75//42 74//40 42//40
f 57//43 89//43 88//41 56//41
f 44//44 76//44 75//42 43//42
f 58//45 90//45 89//43 57//43
f 45//46 77//46 76//44 44//44
f 59//47 91//47 90//45 58//45
f 46//48 78//48 77//46 45//46
f 60//49 92//49 91//47 59//47
f 47//50 79//50 78//48 46//48
f 34//51 66//51 65//52 33//52
f 61//53 93//53 92//49 60//49
f 48//54 80//54 79//50 47//50
f 35//55 67//55 66//51 34//51
f 62//56 94//56 93//53 61//53
f 49//57 81//57 80//54 48//54
f 36//58 68//58 67//55 35//55
f 63//59 95//59 94//56 62//56
f 50//60 82//60 81//57 49//57
f 37//61 69//61 68//58 36//58
f 64//62 96//62 95//59 63//59
f 51//63 83//63 82//60 50//60
f 38//64 70//64 69//61 37//61
f 33//52 65//52 96//62 64//62
f 52//34 84//34 83//63 51//63
f 39//36 71//36 70//64 38//64
