# Blender v2.75 (sub 0) OBJ File: 'rocks.blend'
# www.blender.org
o BB_rock_01_Group56135.001
v -0.332905 0.297091 0.958620
v -0.200994 -0.022292 -0.937979
v -0.960904 -0.156677 -0.021150
v -0.326499 -1.474378 0.039187
v -0.566869 -0.756933 0.479701
v 0.970182 -0.179599 -0.305729
v 0.572001 -1.124564 0.001386
v -0.690957 -0.672234 -0.405435
v -0.278540 -0.835121 -0.597675
v 0.593646 0.448452 0.868054
v 0.504288 -0.268192 -0.829940
v 0.061227 -1.613032 0.134690
v 0.190647 -0.540093 0.836925
v 0.527156 -0.586918 -0.692380
v -0.956450 0.319622 0.030689
v -0.833651 0.448452 0.292960
v 0.930123 -0.099872 0.509463
v -0.164465 0.448452 1.030389
v 0.767547 0.448452 -0.671424
v 0.303022 0.448452 -0.871830
v -0.920501 0.136734 0.483697
v 0.436217 -0.004399 1.026822
v 0.275778 -1.489229 -0.043504
v -0.673206 0.448452 -0.654956
v 0.374397 -0.812767 0.569404
v 0.982993 0.448452 0.153646
v 0.099635 0.168032 1.136062
v -0.280461 -0.380411 0.833201
v -0.128240 -1.632428 -0.099808
v -0.880327 -0.006502 -0.542381
vt 0.721734 0.778128
vt 0.886823 0.780728
vt 0.883837 0.918006
vt 0.787170 0.710771
vt 0.704587 0.824508
vt 0.718362 0.893538
vt 0.646927 0.869204
vt 0.470476 0.750533
vt 0.612072 0.800687
vt 0.491366 0.796497
vt 0.884842 0.741934
vt 0.625278 0.591116
vt 0.596152 0.662022
vt 0.482209 0.698524
vt 0.587638 0.714299
vt 0.472781 0.732586
vt 0.426504 0.693546
vt 0.375270 0.676755
vt 0.371898 0.638709
vt 0.551721 0.847871
vt 0.648727 0.793865
vt 0.400907 0.583581
vt 0.519873 0.599653
vt 0.550802 0.533213
vt 0.603207 0.528989
vt 0.430179 0.696472
vt 0.808538 0.946481
vt 0.653656 0.568008
vt 0.694920 0.725429
vt 0.922656 0.794541
vt 0.491212 0.533631
vt 0.413466 0.474055
vt 0.341968 0.492767
vt 0.435592 0.539726
vt 0.413180 0.447035
vt 0.679837 0.636048
vt 0.488043 0.501819
vt 0.625816 0.919500
vt 0.459085 0.773516
vt 0.876856 0.703095
vt 0.911236 0.871523
vt 0.661865 0.670978
vt 0.521576 0.462175
vt 0.907746 0.928889
vt 0.879168 0.954207
vt 0.704336 0.926524
vt 0.476230 0.466036
vt 0.431976 0.443220
vn 0.121500 0.681300 -0.721800
vn -0.532900 0.818800 0.213700
vn -0.238800 0.695800 0.677400
vn -0.475500 0.691500 -0.543700
vn 0.576100 0.628800 -0.522200
vn 0.741400 0.666700 0.076200
vn 0.939700 -0.190600 -0.283800
vn -0.219900 -0.911900 -0.346400
vn 0.469300 -0.451100 -0.759100
vn 0.621000 -0.756800 -0.204200
vn -0.906800 0.418400 -0.051200
vn -0.973700 -0.227600 0.011200
vn -0.766600 -0.429000 -0.477800
vn -0.702300 -0.682500 0.202300
vn -0.262900 -0.464500 -0.845600
vn 0.165000 -0.878300 0.448700
vn 0.822500 -0.567100 0.044000
vn 0.399900 -0.217200 -0.890400
vn 0.526900 -0.521300 0.671300
vn -0.667000 -0.457800 0.587700
vn -0.589900 0.113800 0.799400
vn -0.854400 0.069100 0.515000
vn 0.472500 0.686100 0.553100
vn -0.206400 -0.065700 -0.976200
vn -0.409700 -0.347300 0.843500
vn 0.454600 -0.184400 0.871400
vn 0.885100 -0.182500 0.428100
vn 0.116500 -0.491300 0.863100
vn -0.827000 -0.056500 -0.559300
vn -0.002000 0.028100 0.999600
s 1
f 20/1/1 16/2/2 18/3/3
f 20/1/1 24/4/4 16/2/2
f 19/5/5 26/6/6 6/7/7
f 29/8/8 14/9/9 23/10/10
f 24/4/4 15/11/11 16/2/2
f 3/12/12 8/13/13 4/14/14
f 8/13/13 9/15/15 29/16/8
f 12/17/16 23/18/10 7/19/17
f 7/20/17 23/10/10 14/9/9
f 11/21/18 19/5/5 6/7/7
f 12/17/16 7/19/17 25/22/19
f 5/23/20 1/24/21 21/25/22
f 12/26/16 4/14/14 29/16/8
f 18/3/3 10/27/23 26/6/6
f 11/21/18 6/7/7 14/9/9
f 15/28/11 3/12/12 21/25/22
f 21/25/22 3/12/12 5/23/20
f 20/1/1 11/21/18 2/29/24
f 9/15/15 14/9/9 29/8/8
f 16/2/2 15/11/11 21/30/22
f 20/1/1 18/3/3 26/6/6
f 20/1/1 19/5/5 11/21/18
f 28/31/25 5/23/20 12/17/16
f 14/9/9 2/29/24 11/21/18
f 2/29/24 24/4/4 20/1/1
f 19/5/5 20/1/1 26/6/6
f 7/20/17 14/9/9 6/7/7
f 2/29/24 14/9/9 9/15/15
f 4/14/14 8/13/13 29/16/8
f 22/32/26 25/22/19 17/33/27
f 3/12/12 4/14/14 5/23/20
f 13/34/28 28/31/25 12/17/16
f 10/35/23 22/32/26 17/33/27
f 12/17/16 5/23/20 4/14/14
f 25/22/19 13/34/28 12/17/16
f 30/36/29 8/13/13 3/12/12
f 13/34/28 25/22/19 22/32/26
f 15/28/11 30/36/29 3/12/12
f 25/22/19 7/19/17 17/33/27
f 27/37/30 28/31/25 13/34/28
f 1/24/21 5/23/20 28/31/25
f 6/7/7 17/38/27 7/20/17
f 29/8/8 23/10/10 12/39/16
f 30/40/29 15/11/11 24/4/4
f 1/41/21 18/3/3 16/2/2
f 30/42/29 24/4/4 2/29/24
f 1/43/21 28/31/25 27/37/30
f 18/3/3 1/44/21 27/45/30
f 27/45/30 10/27/23 18/3/3
f 26/6/6 17/46/27 6/7/7
f 22/32/26 27/47/30 13/34/28
f 9/15/15 30/42/29 2/29/24
f 8/13/13 30/42/29 9/15/15
f 26/6/6 10/27/23 17/46/27
f 27/48/30 22/32/26 10/35/23
f 1/41/21 16/2/2 21/30/22
