# Blender v2.75 (sub 0) OBJ File: 'rocks.blend'
# www.blender.org
o BB__rock_03_Group56135.006
v 0.909537 -0.396495 0.123058
v 0.657141 0.266381 0.203233
v -0.319136 0.390938 -0.096345
v -0.214411 -1.193457 0.468340
v 0.338759 -1.114241 -0.412738
v -0.660449 -0.835452 -0.216083
v -0.168729 0.179499 0.791137
v -0.686313 0.189031 0.382005
v -0.504413 -0.690260 -0.630831
v 0.235937 -0.240644 0.823142
v -0.186944 -0.334827 -0.895522
v -0.431349 -0.223915 0.752977
v 0.867972 -0.090205 -0.467863
v 0.184518 -1.083536 0.601068
v 0.048333 0.275313 -0.489010
v -0.266264 -1.303553 -0.155050
v 0.490485 -1.236836 0.024736
v -0.811174 -0.177295 -0.384604
v -0.515322 -0.114997 -0.784268
vt 0.140278 0.257054
vt 0.187411 0.184552
vt 0.192044 0.252352
vt 0.132004 0.299877
vt 0.058679 0.241778
vt 0.140876 0.172421
vt 0.259325 0.251095
vt 0.298468 0.294366
vt 0.231073 0.297000
vt 0.339469 0.110959
vt 0.257101 0.108445
vt 0.302946 0.083029
vt 0.237485 0.171571
vt 0.197380 0.363394
vt 0.124901 0.395836
vt 0.157968 0.339080
vt 0.369601 0.070869
vt 0.378027 0.092543
vt 0.279028 0.169856
vt 0.158399 0.422235
vt 0.166937 0.277829
vt 0.082914 0.341133
vt 0.287122 0.316557
vt 0.367324 0.154091
vt 0.087238 0.164228
vt 0.377551 0.116507
vn -0.604700 -0.125900 0.786400
vn 0.280400 -0.588500 0.758300
vn 0.367700 0.040300 0.929000
vn -0.794600 0.507600 0.333000
vn -0.891700 -0.449800 -0.050900
vn -0.414600 -0.724300 0.550900
vn 0.956700 -0.123600 0.263600
vn 0.789200 0.258000 -0.557300
vn 0.606300 0.749700 0.265300
vn -0.522800 -0.467700 -0.712600
vn -0.358700 -0.903400 -0.234800
vn 0.599000 -0.799900 0.037200
vn 0.105800 0.821800 -0.559800
vn -0.501200 0.352400 -0.790300
vn -0.270100 0.953400 -0.134000
vn -0.949400 0.183400 -0.254800
vn 0.377000 -0.655800 -0.654100
vn 0.015500 -0.032200 -0.999400
vn -0.082200 0.614200 0.784800
s 1
f 12/1/1 14/2/2 10/3/3
f 8/4/4 6/5/5 4/6/6
f 10/3/3 14/2/2 1/7/7
f 13/8/8 2/9/9 1/7/7
f 9/10/10 16/11/11 6/12/5
f 4/6/6 17/13/12 14/2/2
f 15/14/13 19/15/14 3/16/15
f 18/17/16 9/10/10 6/12/5
f 19/18/14 9/10/10 18/17/16
f 4/6/6 12/1/1 8/4/4
f 17/13/12 5/19/17 13/8/8
f 13/8/8 15/14/13 2/9/9
f 17/13/12 13/8/8 1/7/7
f 19/15/14 15/14/13 11/20/18
f 2/9/9 10/3/3 1/7/7
f 10/3/3 7/21/19 12/1/1
f 1/7/7 14/2/2 17/13/12
f 17/13/12 4/6/6 16/11/11
f 6/5/5 8/4/4 18/22/16
f 11/20/18 15/14/13 13/23/8
f 4/6/6 14/2/2 12/1/1
f 8/4/4 12/1/1 7/21/19
f 9/10/10 5/19/17 16/11/11
f 2/9/9 7/21/19 10/3/3
f 2/9/9 15/14/13 3/16/15
f 7/21/19 2/9/9 3/16/15
f 18/22/16 3/16/15 19/15/14
f 7/21/19 3/16/15 8/4/4
f 11/24/18 13/8/8 5/19/17
f 16/11/11 5/19/17 17/13/12
f 9/10/10 11/24/18 5/19/17
f 3/16/15 18/22/16 8/4/4
f 4/6/6 6/5/5 16/25/11
f 9/10/10 19/26/14 11/24/18
