# Blender v2.75 (sub 0) OBJ File: ''
# www.blender.org
o Plane.003_Plane.008
v 6.463939 -3.627867 2.491167
v 10.692041 1.188640 2.004663
v 5.729215 -3.627867 -3.894164
v 9.957317 1.188640 -4.380668
v 8.241020 0.273576 2.286688
v 7.506296 0.273576 -4.098643
v 4.332365 -3.627867 5.405462
v 8.230965 1.188640 7.112637
v 6.910560 -3.627867 -0.482251
v 10.809162 1.188640 1.224923
v 5.970956 0.273576 6.122993
v 8.549152 0.273576 0.235278
v 1.023843 -3.627867 6.851289
v 3.533832 1.188640 10.288364
v 6.214555 -3.627867 3.060672
v 8.724544 1.188640 6.497747
v 2.078797 0.273576 8.295899
v 7.269509 0.273576 4.505283
v -2.562821 -3.627867 6.435865
v -2.123316 1.188640 10.669111
v 3.830278 -3.627867 5.772120
v 4.269782 1.188640 10.005365
v -2.378097 0.273576 8.215110
v 4.015003 0.273576 7.551364
v -5.453258 -3.627867 4.272047
v -7.203637 1.188640 8.151441
v 0.405453 -3.627867 6.915492
v -1.344926 1.188640 10.794886
v -6.188946 0.273576 5.902567
v -0.330236 0.273576 8.546010
v -6.862240 -3.627867 0.947668
v -10.326988 1.188640 3.419319
v -3.129521 -3.627867 6.180171
v -6.594266 1.188640 8.651822
v -8.318480 0.273576 1.986509
v -4.585762 0.273576 7.219012
v -6.406998 -3.627867 -2.634159
v -10.644865 1.188640 -2.241709
v -5.814315 -3.627867 3.765919
v -10.052181 1.188640 4.158369
v -8.188183 0.273576 -2.469212
v -7.595501 0.273576 3.930867
v -4.211205 -3.627867 -5.500380
v -8.070914 1.188640 -7.293746
v -6.919569 -3.627867 0.328604
v -10.779279 1.188640 -1.464763
v -5.833450 0.273576 -6.254137
v -8.541815 0.273576 -0.425154
v -0.871378 -3.627867 -6.872344
v -3.304387 1.188640 -10.364333
v -6.145024 -3.627867 -3.197983
v -8.578032 1.188640 -6.689973
v -1.893977 0.273576 -8.340036
v -7.167623 0.273576 -4.665675
v 2.705171 -3.627867 -6.377339
v 2.359824 1.188640 -10.619306
v -3.701096 -3.627867 -5.855793
v -4.046443 1.188640 -10.097757
v 2.560021 0.273576 -8.160246
v -3.846246 0.273576 -7.638700
v 5.546822 -3.627867 -4.149841
v 7.382956 1.188640 -7.989390
v -0.251713 -3.627867 -6.922792
v 1.584420 1.188640 -10.762341
v 6.318553 0.273576 -5.763613
v 0.520018 0.273576 -8.536564
v 6.881599 -3.627867 -0.794978
v 10.400402 1.188640 -3.189045
v 3.266050 -3.627867 -6.109117
v 6.784853 1.188640 -8.503184
v 8.360559 0.273576 -1.801211
v 4.745011 0.273576 -7.115349
vt 0.000097 0.395962
vt 0.000097 0.000097
vt 0.941929 0.000097
vt 0.941929 0.395962
vt 0.000097 0.999903
vt 0.941929 0.999903
vn -0.345500 0.937600 0.039800
vn -0.903000 0.416800 0.103900
vn -0.318500 0.937600 -0.139500
vn -0.832700 0.416800 -0.364600
vn -0.205100 0.937600 -0.280800
vn -0.536100 0.416800 -0.734100
vn -0.035900 0.937600 -0.345900
vn -0.093900 0.416800 -0.904100
vn 0.143000 0.937600 -0.317000
vn 0.373900 0.416800 -0.828600
vn 0.283100 0.937600 -0.202000
vn 0.740000 0.416800 -0.527900
vn 0.346300 0.937600 -0.032100
vn 0.905100 0.416800 -0.083800
vn 0.315400 0.937600 0.146500
vn 0.824400 0.416800 0.383000
vn 0.198800 0.937600 0.285300
vn 0.519600 0.416800 0.745800
vn 0.028200 0.937600 0.346600
vn 0.073800 0.416800 0.906000
vn -0.150000 0.937600 0.313700
vn -0.392200 0.416800 0.820100
vn -0.287500 0.937600 0.195600
vn -0.751600 0.416800 0.511300
s off
f 5/1/1 2/2/1 4/3/1 6/4/1
f 1/5/2 5/1/2 6/4/2 3/6/2
f 11/1/3 8/2/3 10/3/3 12/4/3
f 7/5/4 11/1/4 12/4/4 9/6/4
f 17/1/5 14/2/5 16/3/5 18/4/5
f 13/5/6 17/1/6 18/4/6 15/6/6
f 23/1/7 20/2/7 22/3/7 24/4/7
f 19/5/8 23/1/8 24/4/8 21/6/8
f 29/1/9 26/2/9 28/3/9 30/4/9
f 25/5/10 29/1/10 30/4/10 27/6/10
f 35/1/11 32/2/11 34/3/11 36/4/11
f 31/5/12 35/1/12 36/4/12 33/6/12
f 41/1/13 38/2/13 40/3/13 42/4/13
f 37/5/14 41/1/14 42/4/14 39/6/14
f 47/1/15 44/2/15 46/3/15 48/4/15
f 43/5/16 47/1/16 48/4/16 45/6/16
f 53/1/17 50/2/17 52/3/17 54/4/17
f 49/5/18 53/1/18 54/4/18 51/6/18
f 59/1/19 56/2/19 58/3/19 60/4/19
f 55/5/20 59/1/20 60/4/20 57/6/20
f 65/1/21 62/2/21 64/3/21 66/4/21
f 61/5/22 65/1/22 66/4/22 63/6/22
f 71/1/23 68/2/23 70/3/23 72/4/23
f 67/5/24 71/1/24 72/4/24 69/6/24
