# Blender v2.75 (sub 0) OBJ File: ''
# www.blender.org
o Plane.001_Plane.006
v 4.448854 -2.380648 3.221977
v 7.246534 0.854207 3.808044
v 5.333941 -2.380648 -1.003115
v 8.131621 0.854207 -0.417047
v 5.624726 0.239633 3.468302
v 6.509813 0.239633 -0.756789
v 2.223247 -2.380648 5.023008
v 4.346001 0.854207 6.937272
v 5.114192 -2.380648 1.817198
v 7.236947 0.854207 3.731461
v 3.115446 0.239633 5.827578
v 6.006391 0.239633 2.621768
v -0.606337 -2.380648 5.459468
v 0.264816 0.854207 8.181891
v 3.505101 -2.380648 4.143844
v 4.376254 0.854207 6.866266
v -0.240189 0.239633 6.603710
v 3.871248 0.239633 5.288085
v -3.271200 -2.380648 4.412787
v -3.888311 0.854207 7.203785
v 0.943799 -2.380648 5.344755
v 0.326689 0.854207 8.135754
v -3.530573 0.239633 5.585850
v 0.684426 0.239633 6.517819
v -5.047397 -2.380648 2.167310
v -6.985124 0.854207 4.268669
v -1.873899 -2.380648 5.093690
v -3.811625 0.854207 7.195048
v -5.861828 0.239633 3.050516
v -2.688330 0.239633 5.976896
v -5.452396 -2.380648 -0.666947
v -8.184330 0.854207 0.173908
v -4.182526 -2.380648 3.458852
v -6.914459 0.854207 4.299707
v -6.600635 0.239633 -0.313534
v -5.330764 0.239633 3.812265
v -4.376175 -2.380648 -3.320020
v -7.160146 0.854207 -3.968097
v -5.354911 -2.380648 0.884367
v -8.138882 0.854207 0.236290
v -5.546286 0.239633 -3.592408
v -6.525021 0.239633 0.611979
v -2.111106 -2.380648 -5.071162
v -4.190809 0.854207 -7.032114
v -5.072559 -2.380648 -1.930368
v -7.152263 0.854207 -3.891320
v -2.985210 0.239633 -5.895355
v -5.946664 0.239633 -2.754561
v 0.727477 -2.380648 -5.444651
v -0.082978 0.854207 -8.185758
v -3.412175 -2.380648 -4.220692
v -4.222631 0.854207 -6.961798
v 0.386841 0.239633 -6.596745
v -3.752810 0.239633 -5.372786
v 3.368430 -2.380648 -4.339025
v 4.047395 0.854207 -7.115625
v -0.824825 -2.380648 -5.364405
v -0.145861 0.854207 -8.141006
v 3.653800 0.239633 -5.506037
v -0.539455 0.239633 -6.531417
v 5.094302 -2.380648 -2.054641
v 7.078237 0.854207 -4.112432
v 1.986600 -2.380648 -5.050803
v 3.970535 0.854207 -7.108594
v 5.928154 0.239633 -2.919536
v 2.820453 0.239633 -5.915698
v 5.436235 -2.380648 0.787916
v 8.186174 0.854207 0.007961
v 4.258338 -2.380648 -3.365078
v 7.008278 0.854207 -4.145033
v 6.592041 0.239633 0.460099
v 5.414144 0.239633 -3.692895
vt 0.000097 0.395962
vt 0.000097 0.000097
vt 0.941929 0.000097
vt 0.941929 0.395962
vt 0.000097 0.999903
vt 0.941929 0.999903
vn -0.340400 0.937600 -0.071300
vn -0.889700 0.416800 -0.186400
vn -0.258200 0.937600 -0.232900
vn -0.675100 0.416800 -0.608800
vn -0.106000 0.937600 -0.331200
vn -0.277000 0.416800 -0.865800
vn 0.075100 0.937600 -0.339500
vn 0.196200 0.416800 -0.887600
vn 0.235700 0.937600 -0.255600
vn 0.616200 0.416800 -0.668300
vn 0.332400 0.937600 -0.102300
vn 0.868800 0.416800 -0.267400
vn 0.338700 0.937600 0.078800
vn 0.885300 0.416800 0.206100
vn 0.253000 0.937600 0.238600
vn 0.661400 0.416800 0.623600
vn 0.098600 0.937600 0.333500
vn 0.257700 0.416800 0.871700
vn -0.082600 0.937600 0.337800
vn -0.215900 0.416800 0.883000
vn -0.241400 0.937600 0.250300
vn -0.630900 0.416800 0.654400
vn -0.334500 0.937600 0.094900
vn -0.874500 0.416800 0.248000
s off
f 5/1/1 2/2/1 4/3/1 6/4/1
f 1/5/2 5/1/2 6/4/2 3/6/2
f 11/1/3 8/2/3 10/3/3 12/4/3
f 7/5/4 11/1/4 12/4/4 9/6/4
f 17/1/5 14/2/5 16/3/5 18/4/5
f 13/5/6 17/1/6 18/4/6 15/6/6
f 23/1/7 20/2/7 22/3/7 24/4/7
f 19/5/8 23/1/8 24/4/8 21/6/8
f 29/1/9 26/2/9 28/3/9 30/4/9
f 25/5/10 29/1/10 30/4/10 27/6/10
f 35/1/11 32/2/11 34/3/11 36/4/11
f 31/5/12 35/1/12 36/4/12 33/6/12
f 41/1/13 38/2/13 40/3/13 42/4/13
f 37/5/14 41/1/14 42/4/14 39/6/14
f 47/1/15 44/2/15 46/3/15 48/4/15
f 43/5/16 47/1/16 48/4/16 45/6/16
f 53/1/17 50/2/17 52/3/17 54/4/17
f 49/5/18 53/1/18 54/4/18 51/6/18
f 59/1/19 56/2/19 58/3/19 60/4/19
f 55/5/20 59/1/20 60/4/20 57/6/20
f 65/1/21 62/2/21 64/3/21 66/4/21
f 61/5/22 65/1/22 66/4/22 63/6/22
f 71/1/23 68/2/23 70/3/23 72/4/23
f 67/5/24 71/1/24 72/4/24 69/6/24
