# Blender v2.75 (sub 0) OBJ File: 'jet_01.blend'
# www.blender.org
o Cube.002_Cube.000
v -0.016030 -0.157550 -0.017881
v -0.016030 -0.157550 -0.049942
v 0.016030 -0.157550 -0.049942
v 0.016030 -0.157550 -0.017881
v -0.000000 -0.157550 -0.011241
v 0.022670 -0.157550 -0.033912
v -0.000000 -0.157550 -0.056582
v -0.022670 -0.157550 -0.033912
v 0.010138 -0.157550 -0.013635
v -0.010138 -0.157550 -0.013635
v 0.020277 -0.157550 -0.044050
v 0.020277 -0.157550 -0.023773
v -0.010138 -0.157550 -0.054189
v 0.010138 -0.157550 -0.054189
v -0.020277 -0.157550 -0.023773
v -0.020277 -0.157550 -0.044050
v -0.014572 -0.203129 -0.019340
v -0.014572 -0.203129 -0.048484
v 0.014572 -0.203129 -0.048484
v 0.014572 -0.203129 -0.019340
v -0.000000 -0.203129 -0.013304
v 0.020608 -0.203129 -0.033912
v -0.000000 -0.203129 -0.054519
v -0.020608 -0.203129 -0.033912
v 0.009216 -0.203129 -0.015479
v -0.009216 -0.203129 -0.015479
v 0.018432 -0.203129 -0.043128
v 0.018432 -0.203129 -0.024695
v -0.009216 -0.203129 -0.052344
v 0.009216 -0.203129 -0.052344
v -0.018432 -0.203129 -0.024695
v -0.018432 -0.203129 -0.043128
v -0.011230 -0.203129 -0.022682
v -0.011230 -0.203129 -0.045141
v 0.011230 -0.203129 -0.045141
v 0.011230 -0.203129 -0.022682
v -0.000000 -0.203129 -0.018030
v 0.015881 -0.203129 -0.033912
v -0.000000 -0.203129 -0.049793
v -0.015881 -0.203129 -0.033912
v 0.007102 -0.203129 -0.019707
v -0.007102 -0.203129 -0.019707
v 0.014205 -0.203129 -0.041014
v 0.014205 -0.203129 -0.026809
v -0.007102 -0.203129 -0.048116
v 0.007102 -0.203129 -0.048116
v -0.014205 -0.203129 -0.026809
v -0.014205 -0.203129 -0.041014
v -0.000000 -0.146910 -0.033912
v -0.023873 -0.108946 -0.009739
v -0.023873 -0.108946 -0.057484
v 0.023873 -0.108946 -0.057484
v 0.023873 -0.108946 -0.009739
v -0.000000 -0.108946 0.000149
v 0.033761 -0.108946 -0.033612
v -0.000000 -0.108946 -0.067372
v -0.033761 -0.108946 -0.033612
v 0.015098 -0.108946 -0.003415
v -0.015098 -0.108946 -0.003415
v 0.030197 -0.108946 -0.048710
v 0.030197 -0.108946 -0.018513
v -0.015098 -0.108946 -0.063808
v 0.015098 -0.108946 -0.063808
v -0.030197 -0.108946 -0.018513
v -0.030197 -0.108946 -0.048710
v -0.021701 -0.176823 -0.011911
v -0.021701 -0.176823 -0.055312
v 0.021701 -0.176823 -0.055312
v 0.021701 -0.176823 -0.011911
v -0.000000 -0.176823 -0.002922
v 0.030689 -0.176823 -0.033612
v -0.000000 -0.176823 -0.064301
v -0.030690 -0.176823 -0.033612
v 0.013725 -0.176823 -0.006162
v -0.013725 -0.176823 -0.006162
v 0.027450 -0.176823 -0.047336
v 0.027450 -0.176823 -0.019887
v -0.013725 -0.176823 -0.061061
v 0.013725 -0.176823 -0.061061
v -0.027450 -0.176823 -0.019887
v -0.027450 -0.176823 -0.047336
v -0.017485 -0.176823 -0.016126
v -0.017485 -0.176823 -0.051097
v 0.017485 -0.176823 -0.051097
v 0.017485 -0.176823 -0.016126
v -0.000000 -0.176823 -0.008884
v 0.024728 -0.176823 -0.033612
v -0.000000 -0.176823 -0.058340
v -0.024728 -0.176823 -0.033612
v 0.011059 -0.176823 -0.011494
v -0.011059 -0.176823 -0.011494
v 0.022117 -0.176823 -0.044670
v 0.022117 -0.176823 -0.022553
v -0.011059 -0.176823 -0.055729
v 0.011059 -0.176823 -0.055729
v -0.022117 -0.176823 -0.022553
v -0.022117 -0.176823 -0.044670
v -0.000000 -0.119345 -0.033612
v 0.026174 0.049225 -0.010206
v 0.026174 0.049225 -0.058400
v 0.031590 -0.120654 -0.004791
v 0.031590 -0.110831 -0.063816
v 0.043814 -0.110831 -0.034303
v 0.029902 0.039041 -0.006478
v 0.015989 0.052953 -0.062128
v 0.029902 0.052953 -0.020391
v 0.015989 0.052953 -0.006478
v 0.029902 0.039041 -0.062128
v 0.029902 0.052953 -0.048216
v 0.020742 0.062459 -0.034303
v 0.039408 -0.110831 -0.052969
v 0.020742 -0.141016 -0.071634
v 0.020742 -0.110831 -0.071634
v 0.020742 -0.120654 0.003028
v 0.019116 0.042167 -0.000225
v 0.019116 0.042167 -0.068381
v 0.039408 -0.122607 -0.052969
v 0.036155 0.042167 -0.017264
v 0.036155 0.042167 -0.051342
v 0.019116 0.059207 -0.051342
v 0.019116 0.059207 -0.017264
v 0.043814 -0.114894 -0.034303
v 0.031590 -0.132424 -0.063816
v 0.039408 -0.121612 -0.015542
v 0.020742 -0.152149 -0.071634
v 0.039408 -0.136200 -0.052969
v 0.042056 -0.123719 -0.023302
v 0.031590 -0.143590 -0.063816
v 0.028151 -0.122948 -0.008073
v 0.018568 -0.122948 -0.001166
v 0.035058 -0.122948 -0.017657
v 0.018568 -0.149353 -0.067128
v 0.035058 -0.135692 -0.050638
v 0.037193 -0.124267 -0.024394
v 0.028151 -0.142108 -0.060221
v 0.031590 0.054641 -0.034303
v 0.039408 0.043794 -0.034303
v 0.042289 -0.117372 -0.040764
v 0.042289 -0.127860 -0.034718
v 0.037603 -0.128109 -0.034625
v 0.031516 0.025739 -0.063742
v 0.031516 0.025739 -0.004865
v 0.020671 0.025876 0.002885
v 0.020671 0.025876 -0.071491
v 0.039265 0.025876 -0.052897
v 0.039265 0.025876 -0.015709
v 0.043621 0.025947 -0.034303
v 0.016138 -0.095726 -0.024448
v 0.012795 -0.095726 -0.022038
v 0.018548 -0.095726 -0.027791
v 0.012795 -0.104937 -0.045048
v 0.018548 -0.100171 -0.039296
v 0.019292 -0.096186 -0.030141
v 0.016138 -0.102410 -0.042639
v 0.019436 -0.097526 -0.033710
v -0.026174 0.049225 -0.010206
v -0.026174 0.049225 -0.058400
v -0.031590 -0.120654 -0.004791
v 0.000000 0.054641 -0.004791
v 0.000000 0.054641 -0.063816
v -0.031590 -0.110831 -0.063816
v -0.043814 -0.110831 -0.034303
v 0.000000 -0.110831 -0.076040
v 0.000000 -0.120654 0.007434
v -0.029902 0.039041 -0.006478
v -0.015989 0.052953 -0.062128
v -0.029902 0.052953 -0.020391
v -0.015989 0.052953 -0.006478
v -0.029902 0.039041 -0.062128
v -0.029902 0.052953 -0.048216
v 0.000000 0.062459 -0.015638
v 0.000000 0.062459 -0.052969
v -0.020742 0.062459 -0.034303
v -0.039408 -0.110831 -0.052969
v -0.020742 -0.141016 -0.071634
v 0.000000 0.043794 -0.071634
v -0.020742 -0.110831 -0.071634
v 0.000000 0.043794 0.003028
v -0.020742 -0.120654 0.003028
v -0.019116 0.042167 -0.000225
v -0.019116 0.042167 -0.068381
v -0.039408 -0.122607 -0.052969
v -0.036155 0.042167 -0.017264
v -0.036155 0.042167 -0.051342
v 0.000000 -0.146345 -0.076040
v -0.019116 0.059207 -0.051342
v -0.019116 0.059207 -0.017264
v -0.043814 -0.114894 -0.034303
v -0.031590 -0.132424 -0.063816
v -0.039408 -0.121612 -0.015542
v -0.020742 -0.152149 -0.071634
v -0.039408 -0.136200 -0.052969
v 0.000000 -0.156611 -0.076040
v -0.042056 -0.123719 -0.023302
v -0.031590 -0.143590 -0.063816
v -0.028151 -0.122948 -0.008073
v 0.000000 -0.122948 0.002727
v -0.018568 -0.122948 -0.001166
v -0.035058 -0.122948 -0.017657
v -0.018568 -0.149353 -0.067128
v -0.035058 -0.135692 -0.050638
v 0.000000 -0.153332 -0.071021
v -0.037193 -0.124267 -0.024394
v -0.028151 -0.142108 -0.060221
v -0.031590 0.054641 -0.034303
v 0.000000 0.066865 -0.034303
v -0.039408 0.043794 -0.034303
v -0.042289 -0.117372 -0.040764
v -0.042289 -0.127860 -0.034718
v -0.037603 -0.128109 -0.034625
v -0.031516 0.025739 -0.063742
v 0.000000 0.025947 -0.075847
v 0.000000 0.025947 0.007241
v -0.031516 0.025739 -0.004865
v -0.020671 0.025876 0.002885
v -0.020671 0.025876 -0.071491
v -0.039265 0.025876 -0.052897
v -0.039265 0.025876 -0.015709
v -0.043621 0.025947 -0.034303
v -0.016138 -0.095726 -0.024448
v 0.000000 -0.095726 -0.020680
v -0.012795 -0.095726 -0.022038
v -0.018548 -0.095726 -0.027791
v -0.012795 -0.104937 -0.045048
v -0.018548 -0.100171 -0.039296
v 0.000000 -0.106325 -0.046406
v -0.019292 -0.096186 -0.030141
v -0.016138 -0.102410 -0.042639
v -0.019436 -0.097526 -0.033710
vn 0.415000 -0.045200 0.908700
vn 0.303400 -0.682300 0.665100
vn 0.512300 -0.689200 0.512300
vn 0.706400 -0.045200 0.706400
vn -0.706400 -0.045200 -0.706400
vn -0.512300 -0.689200 -0.512300
vn -0.665100 -0.682300 -0.303400
vn -0.908700 -0.045200 -0.415000
vn 0.000000 -0.045200 0.999000
vn 0.000000 -0.675500 0.737300
vn -0.415000 -0.045200 0.908700
vn -0.303400 -0.682300 0.665100
vn -0.706400 -0.045200 0.706400
vn -0.512300 -0.689200 0.512300
vn 0.908700 -0.045200 -0.415000
vn 0.665100 -0.682300 -0.303400
vn 0.512300 -0.689200 -0.512300
vn 0.706400 -0.045200 -0.706400
vn 0.999000 -0.045200 0.000000
vn 0.737300 -0.675500 0.000000
vn 0.908700 -0.045200 0.415000
vn 0.665100 -0.682300 0.303400
vn -0.415000 -0.045200 -0.908700
vn -0.303400 -0.682300 -0.665100
vn 0.000000 -0.045200 -0.999000
vn 0.000000 -0.675500 -0.737300
vn 0.415000 -0.045200 -0.908700
vn 0.303400 -0.682300 -0.665100
vn -0.908700 -0.045200 0.415000
vn -0.665100 -0.682300 0.303400
vn -0.999000 -0.045200 0.000000
vn -0.737300 -0.675500 0.000000
vn 0.540600 -0.841200 0.000000
vn 0.501100 -0.834400 -0.229400
vn 0.501100 -0.834400 0.229400
vn -0.229400 -0.834400 -0.501100
vn -0.396800 -0.827700 -0.396800
vn 0.396800 -0.827700 0.396800
vn 0.000000 -0.841200 -0.540600
vn 0.229400 -0.834400 -0.501100
vn 0.396800 -0.827700 -0.396800
vn -0.501100 -0.834400 0.229400
vn -0.396800 -0.827700 0.396800
vn -0.540600 -0.841200 0.000000
vn -0.501100 -0.834400 -0.229400
vn 0.229400 -0.834400 0.501100
vn 0.000000 -0.841200 0.540600
vn -0.229400 -0.834400 0.501100
vn 0.000000 -1.000000 0.000000
vn 0.488300 -0.872600 0.000000
vn 0.453100 -0.866900 -0.207700
vn 0.453100 -0.866900 0.207700
vn -0.207700 -0.866900 -0.453100
vn -0.359400 -0.861200 -0.359400
vn 0.359400 -0.861200 0.359400
vn 0.000000 -0.872600 -0.488300
vn 0.207700 -0.866900 -0.453100
vn 0.359400 -0.861200 -0.359400
vn -0.453100 -0.866900 0.207700
vn -0.359400 -0.861200 0.359400
vn -0.488300 -0.872600 0.000000
vn -0.453100 -0.866900 -0.207700
vn 0.207700 -0.866900 0.453100
vn 0.000000 -0.872600 0.488300
vn -0.207700 -0.866900 0.453100
vn 0.365500 0.851300 0.376400
vn 0.000000 0.917100 0.398500
vn 0.000000 0.707100 0.707100
vn 0.309400 0.672400 0.672400
vn 0.394700 0.102700 -0.913000
vn 0.703900 0.095200 -0.703900
vn 0.707100 0.000500 -0.707100
vn 0.404300 0.000500 -0.914600
vn 0.394700 0.102600 0.913000
vn 0.000000 0.109100 0.994000
vn 0.000000 -0.499200 0.866500
vn 0.350900 -0.501200 0.790900
vn 0.703500 0.095200 0.704200
vn 0.597300 -0.515500 0.614400
vn 0.577300 0.577300 0.577300
vn 0.365200 0.376400 0.851400
vn 0.669500 0.321900 0.669500
vn 0.000000 0.398500 0.917100
vn 0.000000 0.109100 -0.994000
vn 0.000000 0.000600 -1.000000
vn 0.000000 0.707100 -0.707100
vn 0.309400 0.672400 -0.672400
vn 0.365200 0.376400 -0.851400
vn 0.000000 0.398500 -0.917100
vn 0.577300 0.577300 -0.577300
vn 0.669500 0.321900 -0.669500
vn 0.707100 0.000000 -0.707100
vn 0.404900 0.000000 -0.914300
vn 0.910000 0.000500 -0.414500
vn 0.917600 -0.013500 -0.397200
vn 0.669500 0.669500 0.321900
vn 0.847400 0.375600 0.375300
vn 0.908600 0.102500 -0.404800
vn 0.669500 0.669500 -0.321900
vn 0.847400 0.375600 -0.375300
vn 0.365500 0.851300 -0.376400
vn 0.000000 0.917100 -0.398500
vn 0.000000 0.000000 -1.000000
vn 0.985000 -0.037600 -0.168500
vn 0.999900 -0.006300 0.012400
vn 0.749100 -0.584400 0.311800
vn 0.733800 -0.655400 0.178900
vn 0.471800 -0.787300 -0.396800
vn 0.000000 -0.861600 -0.507500
vn 0.999800 0.016200 0.004700
vn 0.730900 -0.537900 0.419900
vn 0.721500 -0.653800 -0.228000
vn 0.785500 -0.617100 -0.045700
vn 0.908400 0.102500 0.405200
vn -0.080200 -0.708200 0.701400
vn 0.025000 -0.692900 0.720600
vn -0.150000 -0.979900 -0.131200
vn -0.310400 -0.950400 -0.017500
vn -0.247900 -0.784400 0.568600
vn -0.428100 -0.881700 0.198000
vn -0.417600 -0.824900 0.380900
vn 0.000000 -0.703600 0.710500
vn 0.000000 -0.991500 -0.130300
vn -0.044800 -0.990600 -0.129400
vn 0.707100 0.707100 0.000000
vn 0.916300 0.400400 0.000000
vn 0.390500 0.920600 0.000000
vn 0.000000 1.000000 0.000000
vn 0.994000 0.109500 -0.000000
vn -0.842000 -0.539300 -0.012300
vn -0.832100 -0.501400 0.236700
vn -0.449900 -0.471900 0.758200
vn -0.187000 -0.459100 0.868500
vn 0.000000 -0.639100 -0.769100
vn -0.309000 -0.625600 -0.716400
vn -0.722300 -0.491200 0.486800
vn 0.000000 -0.458400 0.888700
vn -0.751500 -0.575700 -0.322200
vn -0.575200 -0.592800 -0.563600
vn -0.365500 0.851300 0.376400
vn -0.309400 0.672400 0.672400
vn -0.394700 0.102700 -0.913000
vn -0.404300 0.000500 -0.914600
vn -0.707100 0.000500 -0.707100
vn -0.703900 0.095200 -0.703900
vn -0.394700 0.102600 0.913000
vn -0.350900 -0.501200 0.790900
vn -0.703500 0.095200 0.704200
vn -0.597300 -0.515500 0.614400
vn -0.577300 0.577300 0.577300
vn -0.669500 0.321900 0.669500
vn -0.365200 0.376400 0.851400
vn -0.365200 0.376400 -0.851400
vn -0.309400 0.672400 -0.672400
vn -0.669500 0.321900 -0.669500
vn -0.577300 0.577300 -0.577300
vn -0.404900 0.000000 -0.914300
vn -0.707100 0.000000 -0.707100
vn -0.917600 -0.013500 -0.397200
vn -0.910000 0.000500 -0.414500
vn -0.669500 0.669500 0.321900
vn -0.847400 0.375600 0.375300
vn -0.908600 0.102500 -0.404800
vn -0.847400 0.375600 -0.375300
vn -0.669500 0.669500 -0.321900
vn -0.365500 0.851300 -0.376400
vn -0.985000 -0.037600 -0.168500
vn -0.733800 -0.655400 0.178900
vn -0.749100 -0.584400 0.311800
vn -0.999900 -0.006300 0.012400
vn -0.471800 -0.787300 -0.396800
vn -0.730900 -0.537900 0.419900
vn -0.999800 0.016200 0.004700
vn -0.721500 -0.653800 -0.228000
vn -0.785500 -0.617100 -0.045700
vn -0.908400 0.102500 0.405200
vn -0.025000 -0.692900 0.720600
vn 0.080200 -0.708200 0.701400
vn 0.310400 -0.950400 -0.017500
vn 0.150000 -0.979900 -0.131200
vn 0.247900 -0.784400 0.568600
vn 0.417600 -0.824900 0.380900
vn 0.428100 -0.881700 0.198000
vn 0.044800 -0.990600 -0.129400
vn -0.916300 0.400400 0.000000
vn -0.707100 0.707100 0.000000
vn -0.390500 0.920600 0.000000
vn -0.994000 0.109500 -0.000000
vn 0.832100 -0.501400 0.236700
vn 0.842000 -0.539300 -0.012300
vn 0.187000 -0.459100 0.868500
vn 0.449900 -0.471900 0.758200
vn 0.309000 -0.625600 -0.716400
vn 0.722300 -0.491200 0.486800
vn 0.751500 -0.575700 -0.322200
vn 0.575200 -0.592800 -0.563600
s 1
f 9//1 25//2 20//3 4//4
f 2//5 18//6 32//7 16//8
f 5//9 21//10 25//2 9//1
f 10//11 26//12 21//10 5//9
f 1//13 17//14 26//12 10//11
f 11//15 27//16 19//17 3//18
f 6//19 22//20 27//16 11//15
f 12//21 28//22 22//20 6//19
f 4//4 20//3 28//22 12//21
f 13//23 29//24 18//6 2//5
f 7//25 23//26 29//24 13//23
f 14//27 30//28 23//26 7//25
f 3//18 19//17 30//28 14//27
f 15//29 31//30 17//14 1//13
f 8//31 24//32 31//30 15//29
f 16//8 32//7 24//32 8//31
f 24//32 40//33 47//34 31//30
f 32//7 48//35 40//33 24//32
f 25//2 41//36 36//37 20//3
f 18//6 34//38 48//35 32//7
f 21//10 37//39 41//36 25//2
f 26//12 42//40 37//39 21//10
f 17//14 33//41 42//40 26//12
f 27//16 43//42 35//43 19//17
f 22//20 38//44 43//42 27//16
f 28//22 44//45 38//44 22//20
f 20//3 36//37 44//45 28//22
f 29//24 45//46 34//38 18//6
f 23//26 39//47 45//46 29//24
f 30//28 46//48 39//47 23//26
f 19//17 35//43 46//48 30//28
f 31//30 47//34 33//41 17//14
f 34//38 45//46 49//49
f 45//46 39//47 49//49
f 39//47 46//48 49//49
f 46//48 35//43 49//49
f 33//41 47//34 49//49
f 47//34 40//33 49//49
f 40//33 48//35 49//49
f 36//37 41//36 49//49
f 48//35 34//38 49//49
f 41//36 37//39 49//49
f 37//39 42//40 49//49
f 42//40 33//41 49//49
f 35//43 43//42 49//49
f 43//42 38//44 49//49
f 38//44 44//45 49//49
f 44//45 36//37 49//49
f 58//1 74//2 69//3 53//4
f 51//5 67//6 81//7 65//8
f 54//9 70//10 74//2 58//1
f 59//11 75//12 70//10 54//9
f 50//13 66//14 75//12 59//11
f 60//15 76//16 68//17 52//18
f 55//19 71//20 76//16 60//15
f 61//21 77//22 71//20 55//19
f 53//4 69//3 77//22 61//21
f 62//23 78//24 67//6 51//5
f 56//25 72//26 78//24 62//23
f 63//27 79//28 72//26 56//25
f 52//18 68//17 79//28 63//27
f 64//29 80//30 66//14 50//13
f 57//31 73//32 80//30 64//29
f 65//8 81//7 73//32 57//31
f 73//32 89//50 96//51 80//30
f 81//7 97//52 89//50 73//32
f 74//2 90//53 85//54 69//3
f 67//6 83//55 97//52 81//7
f 70//10 86//56 90//53 74//2
f 75//12 91//57 86//56 70//10
f 66//14 82//58 91//57 75//12
f 76//16 92//59 84//60 68//17
f 71//20 87//61 92//59 76//16
f 77//22 93//62 87//61 71//20
f 69//3 85//54 93//62 77//22
f 78//24 94//63 83//55 67//6
f 72//26 88//64 94//63 78//24
f 79//28 95//65 88//64 72//26
f 68//17 84//60 95//65 79//28
f 80//30 96//51 82//58 66//14
f 89//50 97//52 98//49
f 85//54 90//53 98//49
f 97//52 83//55 98//49
f 90//53 86//56 98//49
f 86//56 91//57 98//49
f 91//57 82//58 98//49
f 84//60 92//59 98//49
f 92//59 87//61 98//49
f 87//61 93//62 98//49
f 93//62 85//54 98//49
f 83//55 94//63 98//49
f 94//63 88//64 98//49
f 88//64 95//65 98//49
f 95//65 84//60 98//49
f 82//58 96//51 98//49
f 96//51 89//50 98//49
f 121//66 171//67 159//68 107//69
f 144//70 141//71 102//72 113//73
f 143//74 213//75 164//76 114//77
f 142//78 143//74 114//77 101//79
f 99//80 107//69 115//81 104//82
f 107//69 159//68 178//83 115//81
f 212//84 144//70 113//73 163//85
f 160//86 105//87 116//88 176//89
f 105//87 100//90 108//91 116//88
f 113//73 102//72 123//92 112//93
f 102//72 111//94 117//95 123//92
f 106//96 99//80 104//82 118//97
f 141//71 145//98 111//94 102//72
f 100//90 109//99 119//100 108//91
f 100//90 105//87 120//101 109//99
f 105//87 160//86 172//102 120//101
f 106//96 121//66 107//69 99//80
f 163//85 113//73 112//93 185//103
f 138//104 122//105 127//106 139//107
f 185//103 112//93 125//108 193//109
f 122//105 103//110 124//111 127//106
f 112//93 123//92 128//112 125//108
f 123//92 117//95 126//113 128//112
f 146//114 142//78 101//79 124//111
f 125//108 128//112 135//115 132//116
f 124//111 101//79 129//117 131//118
f 128//112 126//113 133//119 135//115
f 139//107 127//106 134//120 140//121
f 193//109 125//108 132//116 202//122
f 114//77 164//76 197//123 130//124
f 127//106 124//111 131//118 134//120
f 101//79 114//77 130//124 129//117
f 126//113 139//107 140//121 133//119
f 117//95 138//104 139//107 126//113
f 109//99 136//125 137//126 119//100
f 136//125 106//96 118//97 137//126
f 103//110 122//105 138//104
f 136//125 110//127 121//66 106//96
f 110//127 206//128 171//67 121//66
f 147//129 146//114 124//111 103//110
f 109//99 120//101 110//127 136//125
f 111//94 103//110 138//104 117//95
f 145//98 147//129 103//110 111//94
f 120//101 172//102 206//128 110//127
f 119//100 137//126 147//129 145//98
f 137//126 118//97 146//114 147//129
f 118//97 104//82 142//78 146//114
f 108//91 119//100 145//98 141//71
f 176//89 116//88 144//70 212//84
f 104//82 115//81 143//74 142//78
f 115//81 178//83 213//75 143//74
f 116//88 108//91 141//71 144//70
f 140//121 134//120 153//130 155//131
f 132//116 135//115 154//132 151//133
f 130//124 197//123 221//134 149//135
f 135//115 133//119 152//136 154//132
f 202//122 132//116 151//133 226//137
f 133//119 140//121 155//131 152//136
f 134//120 131//118 150//138 153//130
f 129//117 130//124 149//135 148//139
f 131//118 129//117 148//139 150//138
f 187//140 168//141 159//68 171//67
f 216//142 177//143 161//144 211//145
f 215//146 179//147 164//76 213//75
f 214//148 158//149 179//147 215//146
f 156//150 165//151 180//152 168//141
f 168//141 180//152 178//83 159//68
f 212//84 163//85 177//143 216//142
f 160//86 176//89 181//153 166//154
f 166//154 181//153 169//155 157//156
f 177//143 175//157 189//158 161//144
f 161//144 189//158 182//159 174//160
f 167//161 183//162 165//151 156//150
f 211//145 161//144 174//160 217//163
f 157//156 169//155 184//164 170//165
f 157//156 170//165 186//166 166//154
f 166//154 186//166 172//102 160//86
f 167//161 156//150 168//141 187//140
f 163//85 185//103 175//157 177//143
f 208//167 209//168 194//169 188//170
f 185//103 193//109 191//171 175//157
f 188//170 194//169 190//172 162//173
f 175//157 191//171 195//174 189//158
f 189//158 195//174 192//175 182//159
f 218//176 190//172 158//149 214//148
f 191//171 200//177 204//178 195//174
f 190//172 199//179 196//180 158//149
f 195//174 204//178 201//181 192//175
f 209//168 210//182 203//183 194//169
f 193//109 202//122 200//177 191//171
f 179//147 198//184 197//123 164//76
f 194//169 203//183 199//179 190//172
f 158//149 196//180 198//184 179//147
f 192//175 201//181 210//182 209//168
f 182//159 192//175 209//168 208//167
f 170//165 184//164 207//185 205//186
f 205//186 207//185 183//162 167//161
f 162//173 208//167 188//170
f 205//186 167//161 187//140 173//187
f 173//187 187//140 171//67 206//128
f 219//188 162//173 190//172 218//176
f 170//165 205//186 173//187 186//166
f 174//160 182//159 208//167 162//173
f 217//163 174//160 162//173 219//188
f 186//166 173//187 206//128 172//102
f 184//164 217//163 219//188 207//185
f 207//185 219//188 218//176 183//162
f 183//162 218//176 214//148 165//151
f 169//155 211//145 217//163 184//164
f 176//89 212//84 216//142 181//153
f 165//151 214//148 215//146 180//152
f 180//152 215//146 213//75 178//83
f 181//153 216//142 211//145 169//155
f 210//182 229//189 227//190 203//183
f 200//177 224//191 228//192 204//178
f 198//184 222//193 221//134 197//123
f 204//178 228//192 225//194 201//181
f 202//122 226//137 224//191 200//177
f 201//181 225//194 229//189 210//182
f 203//183 227//190 223//195 199//179
f 196//180 220//196 222//193 198//184
f 199//179 223//195 220//196 196//180
