# Blender v2.75 (sub 0) OBJ File: 'jet_01.blend'
# www.blender.org
o Cube.007_Cube.009
v 0.184460 0.080558 0.024097
v 0.184460 0.080558 -0.024097
v 0.232654 0.080558 0.024097
v 0.232654 0.080558 -0.024097
v 0.179044 0.056461 0.029513
v 0.179044 0.085974 0.000000
v 0.179044 0.056461 -0.029513
v 0.208557 0.085974 -0.029513
v 0.238070 0.056461 -0.029513
v 0.238070 0.085974 0.000000
v 0.238070 0.056461 0.029513
v 0.208557 0.056461 0.041737
v 0.250294 0.056461 0.000000
v 0.208557 0.056461 -0.041737
v 0.166820 0.056461 0.000000
v 0.180732 0.070373 0.027825
v 0.180732 0.084286 -0.013912
v 0.222469 0.084286 -0.027825
v 0.236382 0.084286 0.013912
v 0.194645 0.084286 0.027825
v 0.180732 0.084286 0.013912
v 0.180732 0.070373 -0.027825
v 0.194645 0.084286 -0.027825
v 0.236382 0.070373 -0.027825
v 0.236382 0.084286 -0.013912
v 0.236382 0.070373 0.027825
v 0.222469 0.084286 0.027825
v 0.189892 0.093792 0.000000
v 0.227222 0.093792 0.000000
v 0.208557 0.093792 0.018665
v 0.208557 0.093792 -0.018665
v 0.227222 -0.038916 -0.037331
v 0.227222 0.056461 0.037331
v 0.245888 -0.057325 0.018665
v 0.245888 0.075126 0.000000
v 0.245888 0.056461 -0.018665
v 0.245888 0.056461 0.018665
v 0.245888 -0.057325 -0.018665
v 0.208557 0.075126 -0.037331
v 0.227222 0.056461 -0.037331
v 0.171226 0.075126 0.000000
v 0.171226 0.056461 0.018665
v 0.171226 0.056461 -0.018665
v 0.174479 0.073500 -0.017039
v 0.174479 0.073500 0.017039
v 0.225596 0.073500 -0.034078
v 0.191518 0.073500 -0.034078
v 0.242635 0.073500 0.017039
v 0.242635 0.073500 -0.017039
v 0.227222 -0.038916 0.037331
v 0.191518 0.073500 0.034078
v 0.225596 0.073500 0.034078
v 0.208557 -0.031203 -0.041737
v 0.250294 -0.062654 0.000000
v 0.225596 0.090539 -0.017039
v 0.225596 0.090539 0.017039
v 0.191518 0.090539 0.017039
v 0.191518 0.090539 -0.017039
v 0.208557 -0.031203 0.041737
v 0.238070 -0.048733 0.029513
v 0.238070 -0.048733 -0.029513
v 0.184263 -0.099085 0.026363
v 0.184263 -0.099085 -0.026363
v 0.232851 -0.099085 -0.026363
v 0.232851 -0.099085 0.026363
v 0.208557 -0.099085 0.037282
v 0.242914 -0.099085 0.000000
v 0.208557 -0.099085 -0.037282
v 0.174200 -0.099085 0.000000
v 0.223922 -0.099085 0.033346
v 0.193192 -0.099085 0.033346
v 0.239287 -0.099085 -0.016673
v 0.239287 -0.099085 0.016673
v 0.193192 -0.099085 -0.033346
v 0.223922 -0.099085 -0.033346
v 0.177828 -0.099085 0.016673
v 0.177828 -0.099085 -0.016673
v 0.186064 -0.139408 0.024408
v 0.186064 -0.139408 -0.024408
v 0.231050 -0.139408 -0.024408
v 0.231050 -0.139408 0.024408
v 0.208557 -0.139408 0.034519
v 0.240367 -0.139408 0.000000
v 0.208557 -0.139408 -0.034519
v 0.176747 -0.139408 0.000000
v 0.222783 -0.139408 0.030874
v 0.194331 -0.139408 0.030874
v 0.237009 -0.139408 -0.015437
v 0.237009 -0.139408 0.015437
v 0.194331 -0.139408 -0.030874
v 0.222783 -0.139408 -0.030874
v 0.180106 -0.139408 0.015437
v 0.180106 -0.139408 -0.015437
v 0.192731 -0.120257 0.015826
v 0.192731 -0.120257 -0.015826
v 0.224383 -0.120257 -0.015826
v 0.224383 -0.120257 0.015826
v 0.208557 -0.120257 0.022381
v 0.230938 -0.120257 0.000000
v 0.208557 -0.120257 -0.022381
v 0.186176 -0.120257 0.000000
v 0.218566 -0.120257 0.020018
v 0.198548 -0.120257 0.020018
v 0.228575 -0.120257 -0.010009
v 0.228575 -0.120257 0.010009
v 0.198548 -0.120257 -0.020018
v 0.218566 -0.120257 -0.020018
v 0.188539 -0.120257 0.010009
v 0.188539 -0.120257 -0.010009
v 0.195606 -0.160765 0.012951
v 0.195606 -0.160765 -0.012951
v 0.221508 -0.160765 -0.012951
v 0.221508 -0.160765 0.012951
v 0.208557 -0.160765 0.018315
v 0.226872 -0.160765 0.000000
v 0.208557 -0.160765 -0.018315
v 0.190242 -0.160765 0.000000
v 0.216748 -0.160765 0.016381
v 0.200366 -0.160765 0.016381
v 0.224939 -0.160765 -0.008191
v 0.224939 -0.160765 0.008191
v 0.200366 -0.160765 -0.016381
v 0.216748 -0.160765 -0.016381
v 0.192176 -0.160765 0.008191
v 0.192176 -0.160765 -0.008191
v 0.200062 -0.160765 0.008495
v 0.200062 -0.160765 -0.008495
v 0.217052 -0.160765 -0.008495
v 0.217052 -0.160765 0.008495
v 0.208557 -0.160765 0.012014
v 0.220571 -0.160765 0.000000
v 0.208557 -0.160765 -0.012014
v 0.196543 -0.160765 0.000000
v 0.213930 -0.160765 0.010746
v 0.203184 -0.160765 0.010746
v 0.219303 -0.160765 -0.005373
v 0.219303 -0.160765 0.005373
v 0.203184 -0.160765 -0.010746
v 0.213930 -0.160765 -0.010746
v 0.197811 -0.160765 0.005373
v 0.197811 -0.160765 -0.005373
v 0.190654 -0.139408 0.019428
v 0.190654 -0.139408 -0.019428
v 0.226460 -0.139408 -0.019428
v 0.226460 -0.139408 0.019428
v 0.208557 -0.139408 0.027475
v 0.233876 -0.139408 0.000000
v 0.208557 -0.139408 -0.027475
v 0.183238 -0.139408 0.000000
v 0.219880 -0.139408 0.024575
v 0.197234 -0.139408 0.024575
v 0.231203 -0.139408 -0.012287
v 0.231203 -0.139408 0.012287
v 0.197234 -0.139408 -0.024575
v 0.219880 -0.139408 -0.024575
v 0.185911 -0.139408 0.012287
v 0.185911 -0.139408 -0.012287
v 0.182131 -0.029175 0.028676
v 0.182131 -0.029175 -0.028676
v 0.234983 -0.029175 -0.028676
v 0.234983 -0.029175 0.028676
v 0.208557 -0.029175 0.040554
v 0.245929 -0.029175 0.000000
v 0.208557 -0.029175 -0.040554
v 0.171185 -0.029175 0.000000
v 0.225270 -0.029175 0.036273
v 0.191844 -0.029175 0.036273
v 0.241983 -0.029175 -0.018137
v 0.241983 -0.029175 0.018137
v 0.191844 -0.029175 -0.036273
v 0.225270 -0.029175 -0.036273
v 0.175131 -0.029175 0.018137
v 0.175131 -0.029175 -0.018137
v 0.182131 0.020677 0.028676
v 0.182131 0.020677 -0.028676
v 0.234983 0.066524 -0.028676
v 0.234983 0.066524 0.028676
v 0.208557 0.036469 0.040554
v 0.208557 0.036469 -0.040554
v 0.171185 0.017374 0.000000
v 0.225270 0.053394 0.036273
v 0.191844 0.025117 0.036273
v 0.191844 0.025117 -0.036273
v 0.225270 0.053394 -0.036273
v 0.175131 0.018365 0.018137
v 0.175131 0.018365 -0.018137
v 0.186908 0.025222 0.024945
v 0.186908 0.025222 -0.024945
v 0.230206 0.062053 -0.024945
v 0.230206 0.062053 0.024945
v 0.208557 0.037909 0.035278
v 0.208557 0.037909 -0.035278
v 0.177941 0.022569 0.000000
v 0.222249 0.051505 0.031553
v 0.194865 0.028789 0.031553
v 0.194865 0.028789 -0.031553
v 0.222249 0.051505 -0.031553
v 0.181173 0.023365 0.015777
v 0.181173 0.023365 -0.015777
v 0.193975 0.020508 0.017178
v 0.193975 0.020508 -0.017178
v 0.223139 0.045128 -0.017178
v 0.223139 0.045128 0.017178
v 0.208557 0.028988 0.024293
v 0.208557 0.028988 -0.024293
v 0.187935 0.018734 0.000000
v 0.217780 0.038078 0.021728
v 0.199334 0.022892 0.021728
v 0.199334 0.022892 -0.021728
v 0.217780 0.038078 -0.021728
v 0.190112 0.019266 0.010864
v 0.190112 0.019266 -0.010864
v 0.189892 0.056461 0.037331
v 0.189892 0.056461 -0.037331
v 0.227222 -0.052509 -0.037331
v 0.245888 -0.068458 0.018665
v 0.245888 -0.068458 -0.018665
v 0.227222 -0.052509 0.037331
v 0.197843 -0.038878 -0.041737
v 0.250294 -0.072920 0.000000
v 0.197843 -0.038878 0.041737
v 0.238070 -0.059899 0.029513
v 0.238070 -0.059899 -0.029513
v 0.182327 0.054166 0.026074
v 0.182327 0.054166 -0.026074
v 0.171527 0.054166 0.000000
v 0.175420 0.054166 0.016491
v 0.175420 0.054166 -0.016491
v 0.191910 0.054166 0.032981
v 0.191910 0.054166 -0.032981
v 0.224892 -0.052001 -0.032981
v 0.241382 -0.065662 0.016491
v 0.241382 -0.065662 -0.016491
v 0.224892 -0.052001 0.032981
v 0.198936 -0.039425 -0.036874
v 0.245275 -0.069641 0.000000
v 0.198936 -0.039425 0.036874
v 0.234475 -0.058417 0.026074
v 0.234475 -0.058417 -0.026074
v 0.208557 0.085974 0.029513
v 0.208557 0.098198 0.000000
v 0.215018 -0.033681 -0.040212
v 0.208557 0.075126 0.037331
v 0.215018 -0.033681 0.040212
v 0.208013 -0.045128 -0.040212
v 0.208013 -0.045128 0.040212
v 0.207920 -0.045377 -0.035526
v 0.207920 -0.045377 0.035526
v 0.195853 -0.101396 0.013786
v 0.195853 -0.101396 -0.013786
v 0.221261 -0.101396 -0.013786
v 0.221261 -0.101396 0.013786
v 0.208557 -0.101396 0.019496
v 0.226523 -0.101396 0.000000
v 0.208557 -0.101396 -0.019496
v 0.190591 -0.101396 0.000000
v 0.216592 -0.101396 0.017438
v 0.200522 -0.101396 0.017438
v 0.224626 -0.101396 -0.008719
v 0.224626 -0.101396 0.008719
v 0.200522 -0.101396 -0.017438
v 0.216592 -0.101396 -0.017438
v 0.192488 -0.101396 0.008719
v 0.192488 -0.101396 -0.008719
vn -0.375600 0.847200 -0.375600
vn -0.321900 0.669500 -0.669500
vn -0.577300 0.577300 -0.577300
vn -0.669500 0.669500 -0.321900
vn -0.375600 0.847200 0.375600
vn -0.400400 0.916300 0.000000
vn -0.707100 0.707100 0.000000
vn -0.669500 0.669500 0.321900
vn 0.847200 0.375600 -0.375600
vn 0.916300 0.400400 0.000000
vn 0.994100 0.108600 0.000000
vn 0.908200 0.101700 -0.405900
vn 0.847200 0.375600 0.375600
vn 0.669500 0.321900 0.669500
vn 0.703900 0.095400 0.703900
vn 0.908200 0.101700 0.405900
vn 0.375600 0.375600 -0.847200
vn 0.669500 0.321900 -0.669500
vn 0.703900 0.095400 -0.703900
vn 0.405900 0.101700 -0.908200
vn -0.847200 0.375600 0.375600
vn -0.916300 0.400400 0.000000
vn -0.916000 -0.401000 0.000000
vn -0.832500 -0.412400 0.369900
vn -0.847200 0.375600 -0.375600
vn -0.669500 0.321900 -0.669500
vn -0.639700 -0.424900 -0.640400
vn -0.832500 -0.412400 -0.369900
vn -0.669500 0.321900 0.669500
vn -0.639700 -0.424900 0.640400
vn -0.577300 0.577300 0.577300
vn 0.321900 0.669500 -0.669500
vn 0.577300 0.577300 -0.577300
vn -0.375600 0.375600 -0.847200
vn 0.000000 0.707100 -0.707100
vn 0.000000 0.400400 -0.916300
vn 0.707100 0.707100 0.000000
vn 0.669500 0.669500 0.321900
vn 0.577300 0.577300 0.577300
vn 0.669500 0.669500 -0.321900
vn 0.707100 0.000000 0.707100
vn 0.909700 0.000000 0.415200
vn 0.405900 0.101700 0.908200
vn 0.395700 -0.014600 0.918200
vn -0.321900 0.669500 0.669500
vn -0.375600 0.375600 0.847200
vn 0.375600 0.375600 0.847200
vn 0.321900 0.669500 0.669500
vn 0.707100 0.000000 -0.707100
vn 0.395700 -0.014600 -0.918200
vn 0.375600 0.847200 -0.375600
vn 0.400400 0.916300 0.000000
vn 0.375600 0.847200 0.375600
vn 0.000000 0.916300 -0.400400
vn 1.000000 0.000000 0.000000
vn 0.909700 0.000000 -0.415200
vn 0.732800 -0.055100 0.678200
vn 0.526800 -0.696700 0.487000
vn 0.665900 -0.691000 0.281100
vn 0.919600 -0.053700 0.389200
vn -0.440700 -0.056600 -0.895800
vn -0.320400 -0.688400 -0.650700
vn -0.526800 -0.696700 -0.487000
vn -0.732800 -0.055100 -0.678200
vn 0.000000 -0.057500 -0.998300
vn 0.000000 -0.680500 -0.732700
vn 0.440700 -0.056600 -0.895800
vn 0.320400 -0.688400 -0.650700
vn 0.732800 -0.055100 -0.678200
vn 0.526800 -0.696700 -0.487000
vn -0.919600 -0.053700 0.389200
vn -0.665900 -0.691000 0.281100
vn -0.526800 -0.696700 0.487000
vn -0.732800 -0.055100 0.678200
vn -0.998600 -0.053000 0.000000
vn -0.728200 -0.685400 0.000000
vn -0.919600 -0.053700 -0.389200
vn -0.665900 -0.691000 -0.281100
vn 0.440700 -0.056600 0.895800
vn 0.320400 -0.688400 0.650700
vn 0.000000 -0.057500 0.998300
vn 0.000000 -0.680500 0.732700
vn -0.440700 -0.056600 0.895800
vn -0.320400 -0.688400 0.650700
vn 0.919600 -0.053700 -0.389200
vn 0.665900 -0.691000 -0.281100
vn 0.998600 -0.053000 0.000000
vn 0.728200 -0.685400 0.000000
vn 0.413500 -0.099800 0.905000
vn 0.295400 -0.702000 0.648000
vn 0.498800 -0.708800 0.498800
vn 0.703500 -0.099900 0.703500
vn -0.703500 -0.099900 -0.703500
vn -0.498800 -0.708800 -0.498800
vn -0.648000 -0.702000 -0.295400
vn -0.905000 -0.099800 -0.413500
vn 0.000000 -0.099900 0.995000
vn 0.000000 -0.695400 0.718600
vn -0.413500 -0.099800 0.905000
vn -0.295400 -0.702000 0.648000
vn -0.703500 -0.099900 0.703500
vn -0.498800 -0.708800 0.498800
vn 0.905000 -0.099800 -0.413500
vn 0.648000 -0.702000 -0.295400
vn 0.498800 -0.708800 -0.498800
vn 0.703500 -0.099900 -0.703500
vn 0.995000 -0.099900 0.000000
vn 0.718600 -0.695400 0.000000
vn 0.905000 -0.099800 0.413500
vn 0.648000 -0.702000 0.295400
vn -0.413500 -0.099800 -0.905000
vn -0.295400 -0.702000 -0.648000
vn 0.000000 -0.099900 -0.995000
vn 0.000000 -0.695400 -0.718600
vn 0.413500 -0.099800 -0.905000
vn 0.295400 -0.702000 -0.648000
vn -0.905000 -0.099800 0.413500
vn -0.648000 -0.702000 0.295400
vn -0.995000 -0.099900 0.000000
vn -0.718600 -0.695400 0.000000
vn 0.000000 -1.000000 0.000000
vn 0.254100 -0.817200 -0.517200
vn 0.000000 -0.827300 -0.561800
vn 0.433600 -0.806200 -0.402500
vn -0.539400 -0.810100 0.229600
vn -0.433600 -0.806200 0.402500
vn -0.579000 -0.815300 0.000000
vn -0.539400 -0.810100 -0.229600
vn -0.433600 -0.806200 -0.402500
vn 0.254100 -0.817200 0.517200
vn 0.433600 -0.806200 0.402500
vn 0.000000 -0.827300 0.561800
vn -0.254100 -0.817200 0.517200
vn 0.539400 -0.810100 -0.229600
vn 0.579000 -0.815300 0.000000
vn 0.539400 -0.810100 0.229600
vn -0.254100 -0.817200 -0.517200
vn -0.920600 -0.021800 -0.389800
vn -0.733600 -0.022300 -0.679100
vn 0.441300 -0.022900 0.897000
vn 0.000000 -0.023300 0.999700
vn -0.441300 -0.022900 0.897000
vn -0.733600 -0.022300 0.679100
vn 0.695700 -0.029800 -0.717700
vn 0.919900 -0.043600 -0.389700
vn 0.999100 -0.043100 0.000000
vn 0.919900 -0.043600 0.389700
vn 0.695700 -0.029800 0.717700
vn -0.441300 -0.022900 -0.897000
vn 0.000000 -0.023300 -0.999700
vn 0.441300 -0.022900 -0.897000
vn -0.920600 -0.021800 0.389800
vn -0.999800 -0.021500 0.000000
vn -0.097800 0.522000 0.847300
vn -0.302500 0.454700 0.837700
vn -0.552400 0.415400 0.722700
vn -0.733000 0.410700 0.542200
vn -0.857100 0.407300 0.315300
vn -0.913800 0.406200 0.000000
vn -0.857100 0.407300 -0.315300
vn -0.733000 0.410700 -0.542200
vn -0.552400 0.415400 -0.722700
vn -0.302500 0.454700 -0.837700
vn -0.097800 0.522000 -0.847300
vn -0.238600 0.618100 -0.749000
vn -0.238600 0.618100 0.749000
vn -0.447200 0.884500 -0.133100
vn -0.290700 0.953600 -0.078800
vn -0.290700 0.953600 0.078800
vn -0.447200 0.884500 0.133100
vn -0.648900 0.749800 0.128700
vn -0.774700 0.629800 0.056300
vn -0.784900 0.617300 -0.052700
vn -0.225000 0.974000 -0.027300
vn -0.209500 0.977800 0.000000
vn -0.225000 0.974000 0.027300
vn -0.784900 0.617300 0.052700
vn -0.774700 0.629800 -0.056300
vn -0.648900 0.749800 -0.128700
vn 0.359900 0.933000 0.000000
vn 0.306400 0.926900 0.216700
vn -0.842200 0.471600 -0.261300
vn -0.744100 0.537900 -0.396100
vn 0.150800 0.900000 0.408900
vn -0.471500 0.685500 -0.554600
vn -0.120500 0.826300 -0.550200
vn 0.150800 0.900000 -0.408900
vn -0.120500 0.826300 0.550200
vn -0.471500 0.685500 0.554600
vn -0.744100 0.537900 0.396100
vn -0.842200 0.471600 0.261300
vn 0.306400 0.926900 -0.216700
vn 0.187900 -0.037400 0.981500
vn 0.059800 -0.033000 0.997700
vn -0.722600 -0.412500 0.554700
vn -0.227600 -0.686300 0.690700
vn 0.509500 -0.860400 0.000000
vn 0.388600 -0.783500 -0.484800
vn 0.388600 -0.783500 0.484800
vn 0.187900 -0.037400 -0.981500
vn 0.064400 -0.616000 -0.785000
vn -0.227600 -0.686300 -0.690700
vn 0.228000 -0.653800 -0.721500
vn 0.020100 0.112600 0.993400
vn -0.544100 -0.137200 0.827700
vn 0.228000 -0.653800 0.721500
vn 0.020100 0.112600 -0.993400
vn 0.059800 -0.033000 -0.997700
vn -0.722600 -0.412500 -0.554700
vn -0.544100 -0.137200 -0.827700
vn 0.064400 -0.616000 0.785000
vn -0.559100 -0.816000 -0.146400
vn -0.520000 -0.836200 -0.174000
vn -0.804000 -0.594400 -0.009600
vn -0.308200 -0.900500 -0.306600
vn -0.520000 -0.836200 0.174000
vn -0.559100 -0.816000 0.146400
vn -0.308200 -0.900500 0.306600
vn -0.804000 -0.594400 0.009600
vn -0.549200 -0.835700 0.000000
vn -0.412000 -0.905300 0.103300
vn -0.412000 -0.905300 -0.103300
vn -0.437800 -0.898000 -0.043500
vn -0.803800 -0.579600 -0.134000
vn -0.437800 -0.898000 0.043500
vn -0.438200 -0.898900 0.000000
vn -0.399200 -0.899200 0.179000
vn -0.399200 -0.899200 -0.179000
vn -0.803800 -0.579600 0.134000
vn 0.000000 0.707100 0.707100
vn 0.000000 0.400400 0.916300
vn 0.000000 0.916300 0.400400
vn 0.000000 1.000000 0.000000
vn 0.720600 -0.197200 -0.664700
vn 0.433000 -0.202400 -0.878400
vn -0.904600 -0.192200 0.380300
vn -0.720600 -0.197200 0.664700
vn -0.981800 -0.189900 0.000000
vn -0.904600 -0.192200 -0.380300
vn -0.720600 -0.197200 -0.664700
vn 0.433000 -0.202400 0.878400
vn 0.720600 -0.197200 0.664700
vn 0.000000 -0.205400 0.978700
vn -0.433000 -0.202400 0.878400
vn 0.904600 -0.192200 -0.380300
vn 0.981800 -0.189900 0.000000
vn 0.904600 -0.192200 0.380300
vn -0.433000 -0.202400 -0.878400
vn 0.000000 -0.205400 -0.978700
s 1
f 58//1 23//2 2//3 17//4
f 57//5 28//6 6//7 21//8
f 49//9 35//10 13//11 36//12
f 48//13 26//14 11//15 37//16
f 46//17 24//18 9//19 40//20
f 45//21 41//22 15//23 42//24
f 44//25 22//26 7//27 43//28
f 41//22 44//25 43//28 15//23
f 6//7 17//4 44//25 41//22
f 17//4 2//3 22//26 44//25
f 16//29 45//21 42//24 5//30
f 1//31 21//8 45//21 16//29
f 21//8 6//7 41//22 45//21
f 18//32 4//33 24//18 46//17
f 2//3 23//2 47//34 22//26
f 23//2 8//35 39//36 47//34
f 35//10 48//13 37//16 13//11
f 10//37 19//38 48//13 35//10
f 19//38 3//39 26//14 48//13
f 24//18 49//9 36//12 9//19
f 4//33 25//40 49//9 24//18
f 25//40 10//37 35//10 49//9
f 37//16 11//15 60//41 34//42
f 11//15 33//43 50//44 60//41
f 20//45 1//31 16//29 51//46
f 26//14 52//47 33//43 11//15
f 3//39 27//48 52//47 26//14
f 40//20 9//19 61//49 32//50
f 10//37 25//40 55//51 29//52
f 25//40 4//33 18//32 55//51
f 3//39 19//38 56//53 27//48
f 19//38 10//37 29//52 56//53
f 20//45 57//5 21//8 1//31
f 28//6 58//1 17//4 6//7
f 31//54 8//35 23//2 58//1
f 13//11 37//16 34//42 54//55
f 36//12 13//11 54//55 38//56
f 9//19 36//12 38//56 61//49
f 65//57 81//58 89//59 73//60
f 74//61 90//62 79//63 63//64
f 68//65 84//66 90//62 74//61
f 75//67 91//68 84//66 68//65
f 64//69 80//70 91//68 75//67
f 76//71 92//72 78//73 62//74
f 69//75 85//76 92//72 76//71
f 77//77 93//78 85//76 69//75
f 70//79 86//80 81//58 65//57
f 63//64 79//63 93//78 77//77
f 66//81 82//82 86//80 70//79
f 71//83 87//84 82//82 66//81
f 62//74 78//73 87//84 71//83
f 72//85 88//86 80//70 64//69
f 67//87 83//88 88//86 72//85
f 73//60 89//59 83//88 67//87
f 102//89 118//90 113//91 97//92
f 95//93 111//94 125//95 109//96
f 98//97 114//98 118//90 102//89
f 103//99 119//100 114//98 98//97
f 94//101 110//102 119//100 103//99
f 104//103 120//104 112//105 96//106
f 99//107 115//108 120//104 104//103
f 105//109 121//110 115//108 99//107
f 97//92 113//91 121//110 105//109
f 106//111 122//112 111//94 95//93
f 100//113 116//114 122//112 106//111
f 107//115 123//116 116//114 100//113
f 96//106 112//105 123//116 107//115
f 108//117 124//118 110//102 94//101
f 101//119 117//120 124//118 108//117
f 109//96 125//95 117//120 101//119
f 117//120 133//121 140//121 124//118
f 125//95 141//121 133//121 117//120
f 118//90 134//121 129//121 113//91
f 111//94 127//121 141//121 125//95
f 114//98 130//121 134//121 118//90
f 119//100 135//121 130//121 114//98
f 110//102 126//121 135//121 119//100
f 120//104 136//121 128//121 112//105
f 115//108 131//121 136//121 120//104
f 121//110 137//121 131//121 115//108
f 113//91 129//121 137//121 121//110
f 122//112 138//121 127//121 111//94
f 116//114 132//121 138//121 122//112
f 123//116 139//121 132//121 116//114
f 112//105 128//121 139//121 123//116
f 124//118 140//121 126//121 110//102
f 87//84 151//122 146//123 82//82
f 78//73 142//124 151//122 87//84
f 88//86 152//125 144//126 80//70
f 83//88 147//127 152//125 88//86
f 89//59 153//128 147//127 83//88
f 81//58 145//129 153//128 89//59
f 90//62 154//130 143//131 79//63
f 84//66 148//132 154//130 90//62
f 91//68 155//133 148//132 84//66
f 80//70 144//126 155//133 91//68
f 92//72 156//134 142//124 78//73
f 85//76 149//135 156//134 92//72
f 93//78 157//136 149//135 85//76
f 86//80 150//137 145//129 81//58
f 79//63 143//131 157//136 93//78
f 82//82 146//123 150//137 86//80
f 63//64 77//77 173//138 159//139
f 66//81 70//79 166//140 162//141
f 71//83 66//81 162//141 167//142
f 62//74 71//83 167//142 158//143
f 72//85 64//69 160//144 168//145
f 67//87 72//85 168//145 163//146
f 73//60 67//87 163//146 169//147
f 65//57 73//60 169//147 161//148
f 74//61 63//64 159//139 170//149
f 68//65 74//61 170//149 164//150
f 75//67 68//65 164//150 171//151
f 64//69 75//67 171//151 160//144
f 76//71 62//74 158//143 172//152
f 69//75 76//71 172//152 165//153
f 77//77 69//75 165//153 173//138
f 70//79 65//57 161//148 166//140
f 166//140 181//154 178//155 162//141
f 162//141 178//155 182//156 167//142
f 167//142 182//156 174//157 158//143
f 158//143 174//157 185//158 172//152
f 172//152 185//158 180//159 165//153
f 165//153 180//159 186//160 173//138
f 173//138 186//160 175//161 159//139
f 159//139 175//161 183//162 170//149
f 170//149 183//162 179//163 164//150
f 164//150 179//163 184//164 171//151
f 171//151 184//164 176//165 160//144
f 161//148 177//166 181//154 166//140
f 174//157 182//156 195//167 187//168
f 183//162 175//161 188//169 196//170
f 179//163 183//162 196//170 192//171
f 184//164 179//163 192//171 197//172
f 176//165 184//164 197//172 189//173
f 185//158 174//157 187//168 198//174
f 180//159 185//158 198//174 193//175
f 186//160 180//159 193//175 199//176
f 181//154 177//166 190//177 194//178
f 175//161 186//160 199//176 188//169
f 178//155 181//154 194//178 191//179
f 182//156 178//155 191//179 195//167
f 199//176 193//175 206//180 212//181
f 194//178 190//177 203//182 207//183
f 188//169 199//176 212//181 201//184
f 191//179 194//178 207//183 204//185
f 195//167 191//179 204//185 208//186
f 187//168 195//167 208//186 200//187
f 196//170 188//169 201//184 209//188
f 192//171 196//170 209//188 205//189
f 197//172 192//171 205//189 210//190
f 189//173 197//172 210//190 202//191
f 198//174 187//168 200//187 211//192
f 193//175 198//174 211//192 206//180
f 244//193 59//194 221//195 246//196
f 38//56 54//55 220//197 217//198
f 54//55 34//42 216//199 220//197
f 242//200 32//50 215//201 245//202
f 61//49 38//56 217//198 223//203
f 59//194 12//204 213//205 221//195
f 34//42 60//41 222//206 216//199
f 32//50 61//49 223//203 215//201
f 14//207 53//208 219//209 214//210
f 60//41 50//44 218//211 222//206
f 51//46 16//29 5//30 213//205
f 47//34 39//36 14//207 214//210
f 22//26 47//34 214//210 7//27
f 223//203 217//198 233//212 239//213
f 7//27 214//210 230//214 225//215
f 216//199 222//206 238//216 232//217
f 213//205 5//30 224//218 229//219
f 217//198 220//197 236//220 233//212
f 222//206 218//211 234//221 238//216
f 245//202 215//201 231//222 247//223
f 246//196 221//195 237//224 248//225
f 215//201 223//203 239//213 231//222
f 220//197 216//199 232//217 236//220
f 42//24 15//23 226//226 227//227
f 221//195 213//205 229//219 237//224
f 5//30 42//24 227//227 224//218
f 43//28 7//27 225//215 228//228
f 214//210 219//209 235//229 230//214
f 15//23 43//28 228//228 226//226
f 218//211 246//196 248//225 234//221
f 219//209 245//202 247//223 235//229
f 53//208 242//200 245//202 219//209
f 50//44 244//193 246//196 218//211
f 27//48 240//230 243//231 52//47
f 39//36 46//17 40//20 14//207
f 8//35 18//32 46//17 39//36
f 240//230 20//45 51//46 243//231
f 12//204 59//194 244//193
f 240//230 30//232 57//5 20//45
f 30//232 241//233 28//6 57//5
f 241//233 31//54 58//1 28//6
f 14//207 40//20 32//50 242//200
f 243//231 51//46 213//205 12//204
f 14//207 242//200 53//208
f 27//48 56//53 30//232 240//230
f 29//52 55//51 31//54 241//233
f 33//43 12//204 244//193 50//44
f 52//47 243//231 12//204 33//43
f 55//51 18//32 8//35 31//54
f 56//53 29//52 241//233 30//232
f 151//122 142//124 249//234 258//235
f 144//126 152//125 259//236 251//237
f 152//125 147//127 254//238 259//236
f 147//127 153//128 260//239 254//238
f 153//128 145//129 252//240 260//239
f 143//131 154//130 261//241 250//242
f 154//130 148//132 255//243 261//241
f 148//132 155//133 262//244 255//243
f 155//133 144//126 251//237 262//244
f 142//124 156//134 263//245 249//234
f 156//134 149//135 256//246 263//245
f 149//135 157//136 264//247 256//246
f 145//129 150//137 257//248 252//240
f 157//136 143//131 250//242 264//247
f 150//137 146//123 253//249 257//248
f 146//123 151//122 258//235 253//249
