# Blender v2.75 (sub 0) OBJ File: 'jet_01.blend'
# www.blender.org
o Cube.001_Cube.002
v -0.184460 0.080558 0.024097
v -0.184460 0.080558 -0.024097
v -0.232654 0.080558 0.024097
v -0.232654 0.080558 -0.024097
v -0.179044 0.056461 0.029513
v -0.179044 0.085974 0.000000
v -0.179044 0.056461 -0.029513
v -0.208557 0.085974 -0.029513
v -0.238070 0.056461 -0.029513
v -0.238070 0.085974 0.000000
v -0.238070 0.056461 0.029513
v -0.208557 0.056461 0.041737
v -0.250294 0.056461 0.000000
v -0.208557 0.056461 -0.041737
v -0.166820 0.056461 0.000000
v -0.180732 0.070373 0.027825
v -0.180732 0.084286 -0.013912
v -0.222469 0.084286 -0.027825
v -0.236382 0.084286 0.013912
v -0.194645 0.084286 0.027825
v -0.180732 0.084286 0.013912
v -0.180732 0.070373 -0.027825
v -0.194645 0.084286 -0.027825
v -0.236382 0.070373 -0.027825
v -0.236382 0.084286 -0.013912
v -0.236382 0.070373 0.027825
v -0.222469 0.084286 0.027825
v -0.189892 0.093792 0.000000
v -0.227222 0.093792 0.000000
v -0.208557 0.093792 0.018665
v -0.208557 0.093792 -0.018665
v -0.227222 -0.038916 -0.037331
v -0.227222 0.056461 0.037331
v -0.245888 -0.057325 0.018665
v -0.245888 0.075126 0.000000
v -0.245888 0.056461 -0.018665
v -0.245888 0.056461 0.018665
v -0.245888 -0.057325 -0.018665
v -0.208557 0.075126 -0.037331
v -0.227222 0.056461 -0.037331
v -0.171226 0.075126 0.000000
v -0.171226 0.056461 0.018665
v -0.171226 0.056461 -0.018665
v -0.174479 0.073500 -0.017039
v -0.174479 0.073500 0.017039
v -0.225596 0.073500 -0.034078
v -0.191518 0.073500 -0.034078
v -0.242635 0.073500 0.017039
v -0.242635 0.073500 -0.017039
v -0.227222 -0.038916 0.037331
v -0.191518 0.073500 0.034078
v -0.225596 0.073500 0.034078
v -0.208557 -0.031203 -0.041737
v -0.250294 -0.062654 0.000000
v -0.225596 0.090539 -0.017039
v -0.225596 0.090539 0.017039
v -0.191518 0.090539 0.017039
v -0.191518 0.090539 -0.017039
v -0.208557 -0.031203 0.041737
v -0.238070 -0.048733 0.029513
v -0.238070 -0.048733 -0.029513
v -0.184263 -0.099085 0.026363
v -0.184263 -0.099085 -0.026363
v -0.232851 -0.099085 -0.026363
v -0.232851 -0.099085 0.026363
v -0.208557 -0.099085 0.037282
v -0.242914 -0.099085 0.000000
v -0.208557 -0.099085 -0.037282
v -0.174200 -0.099085 0.000000
v -0.223922 -0.099085 0.033346
v -0.193192 -0.099085 0.033346
v -0.239287 -0.099085 -0.016673
v -0.239287 -0.099085 0.016673
v -0.193192 -0.099085 -0.033346
v -0.223922 -0.099085 -0.033346
v -0.177828 -0.099085 0.016673
v -0.177828 -0.099085 -0.016673
v -0.186064 -0.139408 0.024408
v -0.186064 -0.139408 -0.024408
v -0.231050 -0.139408 -0.024408
v -0.231050 -0.139408 0.024408
v -0.208557 -0.139408 0.034519
v -0.240367 -0.139408 0.000000
v -0.208557 -0.139408 -0.034519
v -0.176747 -0.139408 0.000000
v -0.222783 -0.139408 0.030874
v -0.194331 -0.139408 0.030874
v -0.237009 -0.139408 -0.015437
v -0.237009 -0.139408 0.015437
v -0.194331 -0.139408 -0.030874
v -0.222783 -0.139408 -0.030874
v -0.180106 -0.139408 0.015437
v -0.180106 -0.139408 -0.015437
v -0.192731 -0.120257 0.015826
v -0.192731 -0.120257 -0.015826
v -0.224383 -0.120257 -0.015826
v -0.224383 -0.120257 0.015826
v -0.208557 -0.120257 0.022381
v -0.230938 -0.120257 0.000000
v -0.208557 -0.120257 -0.022381
v -0.186176 -0.120257 0.000000
v -0.218566 -0.120257 0.020018
v -0.198548 -0.120257 0.020018
v -0.228575 -0.120257 -0.010009
v -0.228575 -0.120257 0.010009
v -0.198548 -0.120257 -0.020018
v -0.218566 -0.120257 -0.020018
v -0.188539 -0.120257 0.010009
v -0.188539 -0.120257 -0.010009
v -0.195606 -0.160765 0.012951
v -0.195606 -0.160765 -0.012951
v -0.221508 -0.160765 -0.012951
v -0.221508 -0.160765 0.012951
v -0.208557 -0.160765 0.018315
v -0.226872 -0.160765 0.000000
v -0.208557 -0.160765 -0.018315
v -0.190242 -0.160765 0.000000
v -0.216748 -0.160765 0.016381
v -0.200366 -0.160765 0.016381
v -0.224939 -0.160765 -0.008191
v -0.224939 -0.160765 0.008191
v -0.200366 -0.160765 -0.016381
v -0.216748 -0.160765 -0.016381
v -0.192176 -0.160765 0.008191
v -0.192176 -0.160765 -0.008191
v -0.200062 -0.160765 0.008495
v -0.200062 -0.160765 -0.008495
v -0.217052 -0.160765 -0.008495
v -0.217052 -0.160765 0.008495
v -0.208557 -0.160765 0.012014
v -0.220571 -0.160765 0.000000
v -0.208557 -0.160765 -0.012014
v -0.196543 -0.160765 0.000000
v -0.213930 -0.160765 0.010746
v -0.203184 -0.160765 0.010746
v -0.219303 -0.160765 -0.005373
v -0.219303 -0.160765 0.005373
v -0.203184 -0.160765 -0.010746
v -0.213930 -0.160765 -0.010746
v -0.197811 -0.160765 0.005373
v -0.197811 -0.160765 -0.005373
v -0.190654 -0.139408 0.019428
v -0.190654 -0.139408 -0.019428
v -0.226460 -0.139408 -0.019428
v -0.226460 -0.139408 0.019428
v -0.208557 -0.139408 0.027475
v -0.233876 -0.139408 0.000000
v -0.208557 -0.139408 -0.027475
v -0.183238 -0.139408 0.000000
v -0.219880 -0.139408 0.024575
v -0.197234 -0.139408 0.024575
v -0.231203 -0.139408 -0.012287
v -0.231203 -0.139408 0.012287
v -0.197234 -0.139408 -0.024575
v -0.219880 -0.139408 -0.024575
v -0.185911 -0.139408 0.012287
v -0.185911 -0.139408 -0.012287
v -0.182131 -0.029175 0.028676
v -0.182131 -0.029175 -0.028676
v -0.234983 -0.029175 -0.028676
v -0.234983 -0.029175 0.028676
v -0.208557 -0.029175 0.040554
v -0.245929 -0.029175 0.000000
v -0.208557 -0.029175 -0.040554
v -0.171185 -0.029175 0.000000
v -0.225270 -0.029175 0.036273
v -0.191844 -0.029175 0.036273
v -0.241983 -0.029175 -0.018137
v -0.241983 -0.029175 0.018137
v -0.191844 -0.029175 -0.036273
v -0.225270 -0.029175 -0.036273
v -0.175131 -0.029175 0.018137
v -0.175131 -0.029175 -0.018137
v -0.182131 0.020677 0.028676
v -0.182131 0.020677 -0.028676
v -0.234983 0.066524 -0.028676
v -0.234983 0.066524 0.028676
v -0.208557 0.036469 0.040554
v -0.208557 0.036469 -0.040554
v -0.171185 0.017374 0.000000
v -0.225270 0.053394 0.036273
v -0.191844 0.025117 0.036273
v -0.191844 0.025117 -0.036273
v -0.225270 0.053394 -0.036273
v -0.175131 0.018365 0.018137
v -0.175131 0.018365 -0.018137
v -0.186908 0.025222 0.024945
v -0.186908 0.025222 -0.024945
v -0.230206 0.062053 -0.024945
v -0.230206 0.062053 0.024945
v -0.208557 0.037909 0.035278
v -0.208557 0.037909 -0.035278
v -0.177941 0.022569 0.000000
v -0.222249 0.051505 0.031553
v -0.194865 0.028789 0.031553
v -0.194865 0.028789 -0.031553
v -0.222249 0.051505 -0.031553
v -0.181173 0.023365 0.015777
v -0.181173 0.023365 -0.015777
v -0.193975 0.020508 0.017178
v -0.193975 0.020508 -0.017178
v -0.223139 0.045128 -0.017178
v -0.223139 0.045128 0.017178
v -0.208557 0.028988 0.024293
v -0.208557 0.028988 -0.024293
v -0.187935 0.018734 0.000000
v -0.217780 0.038078 0.021728
v -0.199334 0.022892 0.021728
v -0.199334 0.022892 -0.021728
v -0.217780 0.038078 -0.021728
v -0.190112 0.019266 0.010864
v -0.190112 0.019266 -0.010864
v -0.189892 0.056461 0.037331
v -0.189892 0.056461 -0.037331
v -0.227222 -0.052509 -0.037331
v -0.245888 -0.068458 0.018665
v -0.245888 -0.068458 -0.018665
v -0.227222 -0.052509 0.037331
v -0.197843 -0.038878 -0.041737
v -0.250294 -0.072920 0.000000
v -0.197843 -0.038878 0.041737
v -0.238070 -0.059899 0.029513
v -0.238070 -0.059899 -0.029513
v -0.182327 0.054166 0.026074
v -0.182327 0.054166 -0.026074
v -0.171527 0.054166 0.000000
v -0.175420 0.054166 0.016491
v -0.175420 0.054166 -0.016491
v -0.191910 0.054166 0.032981
v -0.191910 0.054166 -0.032981
v -0.224892 -0.052001 -0.032981
v -0.241382 -0.065662 0.016491
v -0.241382 -0.065662 -0.016491
v -0.224892 -0.052001 0.032981
v -0.198936 -0.039425 -0.036874
v -0.245275 -0.069641 0.000000
v -0.198936 -0.039425 0.036874
v -0.234475 -0.058417 0.026074
v -0.234475 -0.058417 -0.026074
v -0.208557 0.085974 0.029513
v -0.208557 0.098198 0.000000
v -0.215018 -0.033681 -0.040212
v -0.208557 0.075126 0.037331
v -0.215018 -0.033681 0.040212
v -0.208013 -0.045128 -0.040212
v -0.208013 -0.045128 0.040212
v -0.207920 -0.045377 -0.035526
v -0.207920 -0.045377 0.035526
v -0.195853 -0.101396 0.013786
v -0.195853 -0.101396 -0.013786
v -0.221261 -0.101396 -0.013786
v -0.221261 -0.101396 0.013786
v -0.208557 -0.101396 0.019496
v -0.226523 -0.101396 0.000000
v -0.208557 -0.101396 -0.019496
v -0.190591 -0.101396 0.000000
v -0.216592 -0.101396 0.017438
v -0.200522 -0.101396 0.017438
v -0.224626 -0.101396 -0.008719
v -0.224626 -0.101396 0.008719
v -0.200522 -0.101396 -0.017438
v -0.216592 -0.101396 -0.017438
v -0.192488 -0.101396 0.008719
v -0.192488 -0.101396 -0.008719
vn 0.375600 0.847200 -0.375600
vn 0.669500 0.669500 -0.321900
vn 0.577300 0.577300 -0.577300
vn 0.321900 0.669500 -0.669500
vn 0.375600 0.847200 0.375600
vn 0.669500 0.669500 0.321900
vn 0.707100 0.707100 0.000000
vn 0.400400 0.916300 0.000000
vn -0.847200 0.375600 -0.375600
vn -0.908200 0.101700 -0.405900
vn -0.994100 0.108600 0.000000
vn -0.916300 0.400400 0.000000
vn -0.847200 0.375600 0.375600
vn -0.908200 0.101700 0.405900
vn -0.703900 0.095400 0.703900
vn -0.669500 0.321900 0.669500
vn -0.375600 0.375600 -0.847200
vn -0.405900 0.101700 -0.908200
vn -0.703900 0.095400 -0.703900
vn -0.669500 0.321900 -0.669500
vn 0.847200 0.375600 0.375600
vn 0.832500 -0.412400 0.369900
vn 0.916000 -0.401000 0.000000
vn 0.916300 0.400400 0.000000
vn 0.847200 0.375600 -0.375600
vn 0.832500 -0.412400 -0.369900
vn 0.639700 -0.424900 -0.640400
vn 0.669500 0.321900 -0.669500
vn 0.669500 0.321900 0.669500
vn 0.639700 -0.424900 0.640400
vn 0.577300 0.577300 0.577300
vn -0.321900 0.669500 -0.669500
vn -0.577300 0.577300 -0.577300
vn 0.375600 0.375600 -0.847200
vn 0.000000 0.400400 -0.916300
vn 0.000000 0.707100 -0.707100
vn -0.707100 0.707100 0.000000
vn -0.669500 0.669500 0.321900
vn -0.577300 0.577300 0.577300
vn -0.669500 0.669500 -0.321900
vn -0.909700 0.000000 0.415200
vn -0.707100 0.000000 0.707100
vn -0.395700 -0.014600 0.918200
vn -0.405900 0.101700 0.908200
vn 0.321900 0.669500 0.669500
vn 0.375600 0.375600 0.847200
vn -0.375600 0.375600 0.847200
vn -0.321900 0.669500 0.669500
vn -0.395700 -0.014600 -0.918200
vn -0.707100 0.000000 -0.707100
vn -0.400400 0.916300 0.000000
vn -0.375600 0.847200 -0.375600
vn -0.375600 0.847200 0.375600
vn 0.000000 0.916300 -0.400400
vn -1.000000 0.000000 0.000000
vn -0.909700 0.000000 -0.415200
vn -0.732800 -0.055100 0.678200
vn -0.919600 -0.053700 0.389200
vn -0.665900 -0.691000 0.281100
vn -0.526800 -0.696700 0.487000
vn 0.440700 -0.056600 -0.895800
vn 0.732800 -0.055100 -0.678200
vn 0.526800 -0.696700 -0.487000
vn 0.320400 -0.688400 -0.650700
vn 0.000000 -0.057500 -0.998300
vn 0.000000 -0.680500 -0.732700
vn -0.440700 -0.056600 -0.895800
vn -0.320400 -0.688400 -0.650700
vn -0.732800 -0.055100 -0.678200
vn -0.526800 -0.696700 -0.487000
vn 0.919600 -0.053700 0.389200
vn 0.732800 -0.055100 0.678200
vn 0.526800 -0.696700 0.487000
vn 0.665900 -0.691000 0.281100
vn 0.998600 -0.053000 0.000000
vn 0.728200 -0.685400 0.000000
vn 0.919600 -0.053700 -0.389200
vn 0.665900 -0.691000 -0.281100
vn -0.440700 -0.056600 0.895800
vn -0.320400 -0.688400 0.650700
vn 0.000000 -0.057500 0.998300
vn 0.000000 -0.680500 0.732700
vn 0.440700 -0.056600 0.895800
vn 0.320400 -0.688400 0.650700
vn -0.919600 -0.053700 -0.389200
vn -0.665900 -0.691000 -0.281100
vn -0.998600 -0.053000 0.000000
vn -0.728200 -0.685400 0.000000
vn -0.413500 -0.099800 0.905000
vn -0.703500 -0.099900 0.703500
vn -0.498800 -0.708800 0.498800
vn -0.295400 -0.702000 0.648000
vn 0.703500 -0.099900 -0.703500
vn 0.905000 -0.099800 -0.413500
vn 0.648000 -0.702000 -0.295400
vn 0.498800 -0.708800 -0.498800
vn 0.000000 -0.099900 0.995000
vn 0.000000 -0.695400 0.718600
vn 0.413500 -0.099800 0.905000
vn 0.295400 -0.702000 0.648000
vn 0.703500 -0.099900 0.703500
vn 0.498800 -0.708800 0.498800
vn -0.905000 -0.099800 -0.413500
vn -0.703500 -0.099900 -0.703500
vn -0.498800 -0.708800 -0.498800
vn -0.648000 -0.702000 -0.295400
vn -0.995000 -0.099900 0.000000
vn -0.718600 -0.695400 0.000000
vn -0.905000 -0.099800 0.413500
vn -0.648000 -0.702000 0.295400
vn 0.413500 -0.099800 -0.905000
vn 0.295400 -0.702000 -0.648000
vn 0.000000 -0.099900 -0.995000
vn 0.000000 -0.695400 -0.718600
vn -0.413500 -0.099800 -0.905000
vn -0.295400 -0.702000 -0.648000
vn 0.905000 -0.099800 0.413500
vn 0.648000 -0.702000 0.295400
vn 0.995000 -0.099900 0.000000
vn 0.718600 -0.695400 0.000000
vn 0.000000 -1.000000 0.000000
vn 0.000000 -0.827300 -0.561800
vn -0.254100 -0.817200 -0.517200
vn -0.433600 -0.806200 -0.402500
vn 0.433600 -0.806200 0.402500
vn 0.539400 -0.810100 0.229600
vn 0.579000 -0.815300 0.000000
vn 0.539400 -0.810100 -0.229600
vn 0.433600 -0.806200 -0.402500
vn -0.433600 -0.806200 0.402500
vn -0.254100 -0.817200 0.517200
vn 0.000000 -0.827300 0.561800
vn 0.254100 -0.817200 0.517200
vn -0.539400 -0.810100 -0.229600
vn -0.579000 -0.815300 0.000000
vn -0.539400 -0.810100 0.229600
vn 0.254100 -0.817200 -0.517200
vn 0.733600 -0.022300 -0.679100
vn 0.920600 -0.021800 -0.389800
vn 0.000000 -0.023300 0.999700
vn -0.441300 -0.022900 0.897000
vn 0.441300 -0.022900 0.897000
vn 0.733600 -0.022300 0.679100
vn -0.919900 -0.043600 -0.389700
vn -0.695700 -0.029800 -0.717700
vn -0.999100 -0.043100 0.000000
vn -0.919900 -0.043600 0.389700
vn -0.695700 -0.029800 0.717700
vn 0.441300 -0.022900 -0.897000
vn 0.000000 -0.023300 -0.999700
vn -0.441300 -0.022900 -0.897000
vn 0.920600 -0.021800 0.389800
vn 0.999800 -0.021500 0.000000
vn 0.302500 0.454700 0.837700
vn 0.097800 0.522000 0.847300
vn 0.552400 0.415400 0.722700
vn 0.733000 0.410700 0.542200
vn 0.857100 0.407300 0.315300
vn 0.913800 0.406200 0.000000
vn 0.857100 0.407300 -0.315300
vn 0.733000 0.410700 -0.542200
vn 0.552400 0.415400 -0.722700
vn 0.302500 0.454700 -0.837700
vn 0.097800 0.522000 -0.847300
vn 0.238600 0.618100 -0.749000
vn 0.238600 0.618100 0.749000
vn 0.290700 0.953600 -0.078800
vn 0.447200 0.884500 -0.133100
vn 0.447200 0.884500 0.133100
vn 0.290700 0.953600 0.078800
vn 0.648900 0.749800 0.128700
vn 0.774700 0.629800 0.056300
vn 0.784900 0.617300 -0.052700
vn 0.225000 0.974000 -0.027300
vn 0.209500 0.977800 0.000000
vn 0.225000 0.974000 0.027300
vn 0.774700 0.629800 -0.056300
vn 0.784900 0.617300 0.052700
vn 0.648900 0.749800 -0.128700
vn -0.306400 0.926900 0.216700
vn -0.359900 0.933000 0.000000
vn 0.744100 0.537900 -0.396100
vn 0.842200 0.471600 -0.261300
vn -0.150800 0.900000 0.408900
vn 0.471500 0.685500 -0.554600
vn 0.120500 0.826300 -0.550200
vn -0.150800 0.900000 -0.408900
vn 0.120500 0.826300 0.550200
vn 0.471500 0.685500 0.554600
vn 0.744100 0.537900 0.396100
vn 0.842200 0.471600 0.261300
vn -0.306400 0.926900 -0.216700
vn -0.187900 -0.037400 0.981500
vn 0.227600 -0.686300 0.690700
vn 0.722600 -0.412500 0.554700
vn -0.059800 -0.033000 0.997700
vn -0.388600 -0.783500 -0.484800
vn -0.509500 -0.860400 0.000000
vn -0.388600 -0.783500 0.484800
vn -0.187900 -0.037400 -0.981500
vn 0.227600 -0.686300 -0.690700
vn -0.064400 -0.616000 -0.785000
vn -0.228000 -0.653800 -0.721500
vn 0.544100 -0.137200 0.827700
vn -0.020100 0.112600 0.993400
vn -0.228000 -0.653800 0.721500
vn -0.020100 0.112600 -0.993400
vn 0.544100 -0.137200 -0.827700
vn 0.722600 -0.412500 -0.554700
vn -0.059800 -0.033000 -0.997700
vn -0.064400 -0.616000 0.785000
vn 0.520000 -0.836200 -0.174000
vn 0.559100 -0.816000 -0.146400
vn 0.308200 -0.900500 -0.306600
vn 0.804000 -0.594400 -0.009600
vn 0.559100 -0.816000 0.146400
vn 0.520000 -0.836200 0.174000
vn 0.804000 -0.594400 0.009600
vn 0.308200 -0.900500 0.306600
vn 0.549200 -0.835700 0.000000
vn 0.412000 -0.905300 0.103300
vn 0.437800 -0.898000 -0.043500
vn 0.412000 -0.905300 -0.103300
vn 0.437800 -0.898000 0.043500
vn 0.803800 -0.579600 -0.134000
vn 0.399200 -0.899200 0.179000
vn 0.438200 -0.898900 0.000000
vn 0.399200 -0.899200 -0.179000
vn 0.803800 -0.579600 0.134000
vn 0.000000 0.400400 0.916300
vn 0.000000 0.707100 0.707100
vn 0.000000 0.916300 0.400400
vn 0.000000 1.000000 0.000000
vn -0.433000 -0.202400 -0.878400
vn -0.720600 -0.197200 -0.664700
vn 0.720600 -0.197200 0.664700
vn 0.904600 -0.192200 0.380300
vn 0.981800 -0.189900 0.000000
vn 0.904600 -0.192200 -0.380300
vn 0.720600 -0.197200 -0.664700
vn -0.720600 -0.197200 0.664700
vn -0.433000 -0.202400 0.878400
vn 0.000000 -0.205400 0.978700
vn 0.433000 -0.202400 0.878400
vn -0.904600 -0.192200 -0.380300
vn -0.981800 -0.189900 0.000000
vn -0.904600 -0.192200 0.380300
vn 0.433000 -0.202400 -0.878400
vn 0.000000 -0.205400 -0.978700
s 1
f 58//1 17//2 2//3 23//4
f 57//5 21//6 6//7 28//8
f 49//9 36//10 13//11 35//12
f 48//13 37//14 11//15 26//16
f 46//17 40//18 9//19 24//20
f 45//21 42//22 15//23 41//24
f 44//25 43//26 7//27 22//28
f 41//24 15//23 43//26 44//25
f 6//7 41//24 44//25 17//2
f 17//2 44//25 22//28 2//3
f 16//29 5//30 42//22 45//21
f 1//31 16//29 45//21 21//6
f 21//6 45//21 41//24 6//7
f 18//32 46//17 24//20 4//33
f 2//3 22//28 47//34 23//4
f 23//4 47//34 39//35 8//36
f 35//12 13//11 37//14 48//13
f 10//37 35//12 48//13 19//38
f 19//38 48//13 26//16 3//39
f 24//20 9//19 36//10 49//9
f 4//33 24//20 49//9 25//40
f 25//40 49//9 35//12 10//37
f 37//14 34//41 60//42 11//15
f 11//15 60//42 50//43 33//44
f 20//45 51//46 16//29 1//31
f 26//16 11//15 33//44 52//47
f 3//39 26//16 52//47 27//48
f 40//18 32//49 61//50 9//19
f 10//37 29//51 55//52 25//40
f 25//40 55//52 18//32 4//33
f 3//39 27//48 56//53 19//38
f 19//38 56//53 29//51 10//37
f 20//45 1//31 21//6 57//5
f 28//8 6//7 17//2 58//1
f 31//54 58//1 23//4 8//36
f 13//11 54//55 34//41 37//14
f 36//10 38//56 54//55 13//11
f 9//19 61//50 38//56 36//10
f 65//57 73//58 89//59 81//60
f 74//61 63//62 79//63 90//64
f 68//65 74//61 90//64 84//66
f 75//67 68//65 84//66 91//68
f 64//69 75//67 91//68 80//70
f 76//71 62//72 78//73 92//74
f 69//75 76//71 92//74 85//76
f 77//77 69//75 85//76 93//78
f 70//79 65//57 81//60 86//80
f 63//62 77//77 93//78 79//63
f 66//81 70//79 86//80 82//82
f 71//83 66//81 82//82 87//84
f 62//72 71//83 87//84 78//73
f 72//85 64//69 80//70 88//86
f 67//87 72//85 88//86 83//88
f 73//58 67//87 83//88 89//59
f 102//89 97//90 113//91 118//92
f 95//93 109//94 125//95 111//96
f 98//97 102//89 118//92 114//98
f 103//99 98//97 114//98 119//100
f 94//101 103//99 119//100 110//102
f 104//103 96//104 112//105 120//106
f 99//107 104//103 120//106 115//108
f 105//109 99//107 115//108 121//110
f 97//90 105//109 121//110 113//91
f 106//111 95//93 111//96 122//112
f 100//113 106//111 122//112 116//114
f 107//115 100//113 116//114 123//116
f 96//104 107//115 123//116 112//105
f 108//117 94//101 110//102 124//118
f 101//119 108//117 124//118 117//120
f 109//94 101//119 117//120 125//95
f 117//120 124//118 140//121 133//121
f 125//95 117//120 133//121 141//121
f 118//92 113//91 129//121 134//121
f 111//96 125//95 141//121 127//121
f 114//98 118//92 134//121 130//121
f 119//100 114//98 130//121 135//121
f 110//102 119//100 135//121 126//121
f 120//106 112//105 128//121 136//121
f 115//108 120//106 136//121 131//121
f 121//110 115//108 131//121 137//121
f 113//91 121//110 137//121 129//121
f 122//112 111//96 127//121 138//121
f 116//114 122//112 138//121 132//121
f 123//116 116//114 132//121 139//121
f 112//105 123//116 139//121 128//121
f 124//118 110//102 126//121 140//121
f 87//84 82//82 146//122 151//123
f 78//73 87//84 151//123 142//124
f 88//86 80//70 144//125 152//126
f 83//88 88//86 152//126 147//127
f 89//59 83//88 147//127 153//128
f 81//60 89//59 153//128 145//129
f 90//64 79//63 143//130 154//131
f 84//66 90//64 154//131 148//132
f 91//68 84//66 148//132 155//133
f 80//70 91//68 155//133 144//125
f 92//74 78//73 142//124 156//134
f 85//76 92//74 156//134 149//135
f 93//78 85//76 149//135 157//136
f 86//80 81//60 145//129 150//137
f 79//63 93//78 157//136 143//130
f 82//82 86//80 150//137 146//122
f 63//62 159//138 173//139 77//77
f 66//81 162//140 166//141 70//79
f 71//83 167//142 162//140 66//81
f 62//72 158//143 167//142 71//83
f 72//85 168//144 160//145 64//69
f 67//87 163//146 168//144 72//85
f 73//58 169//147 163//146 67//87
f 65//57 161//148 169//147 73//58
f 74//61 170//149 159//138 63//62
f 68//65 164//150 170//149 74//61
f 75//67 171//151 164//150 68//65
f 64//69 160//145 171//151 75//67
f 76//71 172//152 158//143 62//72
f 69//75 165//153 172//152 76//71
f 77//77 173//139 165//153 69//75
f 70//79 166//141 161//148 65//57
f 166//141 162//140 178//154 181//155
f 162//140 167//142 182//156 178//154
f 167//142 158//143 174//157 182//156
f 158//143 172//152 185//158 174//157
f 172//152 165//153 180//159 185//158
f 165//153 173//139 186//160 180//159
f 173//139 159//138 175//161 186//160
f 159//138 170//149 183//162 175//161
f 170//149 164//150 179//163 183//162
f 164//150 171//151 184//164 179//163
f 171//151 160//145 176//165 184//164
f 161//148 166//141 181//155 177//166
f 174//157 187//167 195//168 182//156
f 183//162 196//169 188//170 175//161
f 179//163 192//171 196//169 183//162
f 184//164 197//172 192//171 179//163
f 176//165 189//173 197//172 184//164
f 185//158 198//174 187//167 174//157
f 180//159 193//175 198//174 185//158
f 186//160 199//176 193//175 180//159
f 181//155 194//177 190//178 177//166
f 175//161 188//170 199//176 186//160
f 178//154 191//179 194//177 181//155
f 182//156 195//168 191//179 178//154
f 199//176 212//180 206//181 193//175
f 194//177 207//182 203//183 190//178
f 188//170 201//184 212//180 199//176
f 191//179 204//185 207//182 194//177
f 195//168 208//186 204//185 191//179
f 187//167 200//187 208//186 195//168
f 196//169 209//188 201//184 188//170
f 192//171 205//189 209//188 196//169
f 197//172 210//190 205//189 192//171
f 189//173 202//191 210//190 197//172
f 198//174 211//192 200//187 187//167
f 193//175 206//181 211//192 198//174
f 244//193 246//194 221//195 59//196
f 38//56 217//197 220//198 54//55
f 54//55 220//198 216//199 34//41
f 242//200 245//201 215//202 32//49
f 61//50 223//203 217//197 38//56
f 59//196 221//195 213//204 12//205
f 34//41 216//199 222//206 60//42
f 32//49 215//202 223//203 61//50
f 14//207 214//208 219//209 53//210
f 60//42 222//206 218//211 50//43
f 51//46 213//204 5//30 16//29
f 47//34 214//208 14//207 39//35
f 22//28 7//27 214//208 47//34
f 223//203 239//212 233//213 217//197
f 7//27 225//214 230//215 214//208
f 216//199 232//216 238//217 222//206
f 213//204 229//218 224//219 5//30
f 217//197 233//213 236//220 220//198
f 222//206 238//217 234//221 218//211
f 245//201 247//222 231//223 215//202
f 246//194 248//224 237//225 221//195
f 215//202 231//223 239//212 223//203
f 220//198 236//220 232//216 216//199
f 42//22 227//226 226//227 15//23
f 221//195 237//225 229//218 213//204
f 5//30 224//219 227//226 42//22
f 43//26 228//228 225//214 7//27
f 214//208 230//215 235//229 219//209
f 15//23 226//227 228//228 43//26
f 218//211 234//221 248//224 246//194
f 219//209 235//229 247//222 245//201
f 53//210 219//209 245//201 242//200
f 50//43 218//211 246//194 244//193
f 27//48 52//47 243//230 240//231
f 39//35 14//207 40//18 46//17
f 8//36 39//35 46//17 18//32
f 240//231 243//230 51//46 20//45
f 12//205 244//193 59//196
f 240//231 20//45 57//5 30//232
f 30//232 57//5 28//8 241//233
f 241//233 28//8 58//1 31//54
f 14//207 242//200 32//49 40//18
f 243//230 12//205 213//204 51//46
f 14//207 53//210 242//200
f 27//48 240//231 30//232 56//53
f 29//51 241//233 31//54 55//52
f 33//44 50//43 244//193 12//205
f 52//47 33//44 12//205 243//230
f 55//52 31//54 8//36 18//32
f 56//53 30//232 241//233 29//51
f 151//123 258//234 249//235 142//124
f 144//125 251//236 259//237 152//126
f 152//126 259//237 254//238 147//127
f 147//127 254//238 260//239 153//128
f 153//128 260//239 252//240 145//129
f 143//130 250//241 261//242 154//131
f 154//131 261//242 255//243 148//132
f 148//132 255//243 262//244 155//133
f 155//133 262//244 251//236 144//125
f 142//124 249//235 263//245 156//134
f 156//134 263//245 256//246 149//135
f 149//135 256//246 264//247 157//136
f 145//129 252//240 257//248 150//137
f 157//136 264//247 250//241 143//130
f 150//137 257//248 253//249 146//122
f 146//122 253//249 258//234 151//123
